<?xml version="1.0" encoding="UTF-8"?>
<svg version="1.1" xmlns="http://www.w3.org/2000/svg" width="512" height="512">
<path d="M0 0 C0.96988861 0.00182281 1.93977722 0.00364563 2.9390564 0.00552368 C17.29056055 0.05091691 31.25442918 0.5562653 45.375 3.3125 C46.72053955 3.55395752 46.72053955 3.55395752 48.09326172 3.80029297 C92.77582457 11.88556116 134.41470763 32.2777253 168.375 62.3125 C169.62796875 63.39917969 169.62796875 63.39917969 170.90625 64.5078125 C181.98147413 74.2525714 192.32614912 84.65212414 201.375 96.3125 C202.138125 97.24707031 202.90125 98.18164062 203.6875 99.14453125 C229.51656589 131.38947088 246.04148822 170.843169 253.375 211.3125 C253.53871094 212.19019043 253.70242188 213.06788086 253.87109375 213.97216797 C255.98418399 225.67493326 256.69033289 237.31635763 256.8125 249.1875 C256.83481689 250.46568604 256.85713379 251.74387207 256.88012695 253.06079102 C256.85987916 261.31258957 256.12594062 266.87645607 250.6640625 273.3359375 C247.04980387 276.27146211 243.99547104 278.18555584 239.375 279.3125 C239.2713916 279.99538086 239.1677832 280.67826172 239.06103516 281.38183594 C238.24576581 284.86457376 236.87174373 287.96348042 235.3984375 291.203125 C234.80282588 292.5668968 234.20914086 293.93151133 233.6171875 295.296875 C232.69487689 297.4175091 231.76427378 299.53143181 230.79882812 301.6328125 C226.71113715 310.57304308 224.92221546 317.24466634 226.03039551 327.05923462 C226.79354191 334.86752799 224.36119519 341.13827734 221.375 348.3125 C220.92672852 349.4478418 220.47845703 350.58318359 220.01660156 351.75292969 C218.81577261 354.75373091 217.58326876 357.73863194 216.32894897 360.71740723 C214.80906365 364.32958986 213.30943153 367.95018349 211.80859375 371.5703125 C211.47227432 372.38085083 211.1359549 373.19138916 210.78944397 374.02648926 C205.12113408 387.72002654 199.62047834 401.48271327 194.08575439 415.23065186 C193.36775665 417.01405975 193.36775665 417.01405975 192.63525391 418.83349609 C191.92674286 420.59365555 191.92674286 420.59365555 191.20391846 422.38937378 C189.81512831 425.83563637 188.42207956 429.28015635 187.02880859 432.72460938 C185.28032182 437.05077205 183.55596924 441.38538415 181.85009766 445.72851562 C181.06285446 447.70964692 180.27558383 449.6907673 179.48828125 451.671875 C178.97179268 453.01031464 178.97179268 453.01031464 178.44487 454.37579346 C175.40702887 461.96581226 171.54391752 467.61749381 164.0625 471.3828125 C154.49047724 474.69406456 146.85331587 472.35704146 138.0625 468.4375 C132.37684749 465.73209906 132.37684749 465.73209906 126.3359375 466.1484375 C124.0832588 467.71137093 122.29121471 469.36411861 120.375 471.3125 C109.92698955 474.79517015 100.20646266 471.38667607 90.5625 467.1875 C89.40041016 466.713125 88.23832031 466.23875 87.04101562 465.75 C78.11040937 461.99295132 70.17262991 458.41213989 66.06640625 449.2421875 C60.93184446 434.9118286 69.67094169 420.33381837 75.07434082 407.13604736 C76.03897305 404.77980306 76.99990113 402.42207569 77.95996094 400.06396484 C79.00157254 397.50554841 80.043367 394.94720857 81.08618164 392.38928223 C84.88863572 383.06094419 88.66296235 373.72128288 92.43591309 364.38098145 C93.62779119 361.43059065 94.82016342 358.48040003 96.01269531 355.53027344 C99.78146285 346.20676407 103.54884071 336.88269476 107.31433105 327.55786133 C109.04331834 323.27645275 110.77279175 318.99524063 112.50231934 314.71405029 C113.32328498 312.68147558 114.14401097 310.64880405 114.96447754 308.61602783 C117.42811626 302.51218784 119.89720358 296.41060681 122.375 290.3125 C122.64506866 289.64626617 122.91513733 288.98003235 123.19338989 288.29360962 C123.88426152 286.59263719 124.58054975 284.89386745 125.27734375 283.1953125 C125.63820068 282.31375488 125.99905762 281.43219727 126.37084961 280.52392578 C129.12328625 274.46227466 133.34615842 271.00985757 139.39819336 268.31323242 C149.41476481 264.94589654 158.82122571 267.92388167 168.125 271.9375 C169.18332031 272.36417969 170.24164063 272.79085938 171.33203125 273.23046875 C180.42035314 277.00319221 188.98152182 280.76807502 193.51171875 289.921875 C194.88893868 293.73571481 195.18251998 297.2704195 195.375 301.3125 C195.94347656 301.49425781 196.51195312 301.67601562 197.09765625 301.86328125 C201.98201003 303.45334634 206.68529027 305.21709778 211.375 307.3125 C211.54298096 306.79115479 211.71096191 306.26980957 211.8840332 305.73266602 C213.92428746 299.49715174 216.20647777 293.37224946 218.5625 287.25 C218.93052734 286.28900391 219.29855469 285.32800781 219.67773438 284.33789062 C220.57509672 281.99542528 221.47421284 279.65364999 222.375 277.3125 C221.61574219 277.05082031 220.85648437 276.78914063 220.07421875 276.51953125 C215.31092719 274.38949204 212.40628343 270.32595812 210.0625 265.75 C208.67913225 260.84533251 208.27683275 256.06093219 208.13623047 250.99707031 C206.38301343 193.10607588 180.73425532 140.68760206 139.0625 101.125 C111.04603552 76.39724383 76.69840243 60.27458981 40.375 52.3125 C39.56788574 52.13315918 38.76077148 51.95381836 37.92919922 51.76904297 C4.18524868 44.67654491 -33.20280122 48.54813973 -65.625 59.3125 C-66.34864746 59.55226562 -67.07229492 59.79203125 -67.81787109 60.0390625 C-77.57627873 63.34253646 -86.75026113 67.59766838 -95.86181641 72.38818359 C-97.40413987 73.19671816 -98.95711542 73.98486678 -100.51171875 74.76953125 C-142.49597747 96.54611985 -174.31106422 135.25496516 -192.32910156 178.38208008 C-192.70518555 179.26017334 -193.08126953 180.1382666 -193.46875 181.04296875 C-193.79037109 181.82051514 -194.11199219 182.59806152 -194.44335938 183.39916992 C-195.90044993 185.75851263 -197.02443678 186.40905363 -199.625 187.3125 C-203.30560775 187.18335587 -205.6966765 187.09109391 -208.5625 184.6875 C-210.28972069 180.82665375 -210.22634933 177.19799631 -208.93823242 173.15917969 C-207.94547976 170.73447704 -206.87126471 168.36803895 -205.75 166 C-205.34434814 165.12625732 -204.93869629 164.25251465 -204.52075195 163.35229492 C-195.21605326 143.61478524 -183.68690482 125.98266136 -169.625 109.3125 C-168.28713955 107.64946513 -166.95254333 105.98378222 -165.625 104.3125 C-167.03344718 101.09725695 -168.72844786 98.99066132 -171.25 96.5625 C-171.88164062 95.94890625 -172.51328125 95.3353125 -173.1640625 94.703125 C-173.64617187 94.24421875 -174.12828125 93.7853125 -174.625 93.3125 C-176.32164128 94.95441092 -177.97900071 96.62013454 -179.625 98.3125 C-180.57246094 99.28316406 -180.57246094 99.28316406 -181.5390625 100.2734375 C-203.65773809 123.83988095 -219.0256778 154.70286577 -228.625 185.3125 C-228.97836426 186.4267334 -228.97836426 186.4267334 -229.33886719 187.56347656 C-235.45606002 207.17165388 -238.75765402 227.66107887 -238.9375 248.1875 C-238.98100586 249.87746094 -238.98100586 249.87746094 -239.02539062 251.6015625 C-239.03376953 252.67921875 -239.04214844 253.756875 -239.05078125 254.8671875 C-239.06536377 255.84155762 -239.07994629 256.81592773 -239.0949707 257.81982422 C-238.83990214 260.43232889 -238.83990214 260.43232889 -236.82495117 262.16455078 C-233.52375806 263.8871354 -231.1573495 263.16288044 -227.625 262.3125 C-224.58328952 259.27078952 -224.51502429 256.23501655 -224.4140625 252.06640625 C-224.37454468 250.82528076 -224.37454468 250.82528076 -224.33422852 249.55908203 C-224.30643311 248.67333496 -224.2786377 247.78758789 -224.25 246.875 C-223.94646136 239.16146788 -223.2872063 231.57889168 -222.1875 223.9375 C-222.0652002 223.07713135 -221.94290039 222.2167627 -221.81689453 221.33032227 C-220.0076019 209.38640285 -220.0076019 209.38640285 -217.375 205.4375 C-214.75948681 203.75609866 -212.72174738 203.4363699 -209.625 203.3125 C-205.05978261 205.44293478 -205.05978261 205.44293478 -203.625 208.3125 C-203.36121184 214.39991908 -204.08797412 220.06524401 -205.0625 226.0625 C-206.32008326 234.20671066 -207.04663735 242.23703362 -207.24584961 250.47558594 C-207.5140577 259.29953945 -208.51857189 267.36319276 -215.1484375 273.7890625 C-219.18365922 277.3125 -219.18365922 277.3125 -221.625 277.3125 C-221.29177734 278.15022949 -220.95855469 278.98795898 -220.61523438 279.85107422 C-219.38252705 282.95482438 -218.15287637 286.05974893 -216.92529297 289.16552734 C-216.3929894 290.51041391 -215.85946596 291.85481832 -215.32470703 293.19873047 C-214.55701919 295.12863217 -213.7937107 297.06021573 -213.03125 298.9921875 C-212.57041016 300.15476074 -212.10957031 301.31733398 -211.63476562 302.51513672 C-210.625 305.3125 -210.625 305.3125 -210.625 307.3125 C-209.64917969 306.879375 -208.67335937 306.44625 -207.66796875 306 C-206.3829382 305.4372129 -205.09777498 304.87472866 -203.8125 304.3125 C-203.16990234 304.02632813 -202.52730469 303.74015625 -201.86523438 303.4453125 C-198.94743531 302.17538959 -196.84234286 301.3125 -193.625 301.3125 C-193.7075 300.1575 -193.79 299.0025 -193.875 297.8125 C-193.83462293 292.08905076 -191.90895027 287.85620505 -188.09228516 283.60546875 C-182.24896564 278.20043775 -175.83099995 275.32617648 -168.5 272.375 C-167.365625 271.88193359 -166.23125 271.38886719 -165.0625 270.88085938 C-156.37722704 267.33092638 -147.47029725 265.46958821 -138.19287109 267.96728516 C-129.82424983 271.64078384 -125.75894634 279.27097121 -122.5 287.375 C-122.12294922 288.28290283 -121.74589844 289.19080566 -121.35742188 290.1262207 C-120.09604962 293.18158423 -118.85797771 296.24557374 -117.625 299.3125 C-117.19477539 300.37887695 -116.76455078 301.44525391 -116.32128906 302.54394531 C-114.1487974 307.93809853 -111.98948403 313.33740047 -109.84049988 318.74095154 C-105.74747792 329.03157319 -101.59674764 339.29849311 -97.4375 349.5625 C-97.08206116 350.43980774 -96.72662231 351.31711548 -96.3604126 352.2210083 C-94.90245308 355.8195881 -93.44440186 359.41813067 -91.98602295 363.01654053 C-89.32238361 369.58926915 -86.66237152 376.16345835 -84.00390625 382.73828125 C-82.86789209 385.54725053 -81.73184451 388.35620629 -80.59579468 391.16516113 C-79.87917908 392.93731138 -79.16272154 394.70952556 -78.44644165 396.48181152 C-77.44135544 398.96854505 -76.43565787 401.45503027 -75.4296875 403.94140625 C-75.11233139 404.72639496 -74.79497528 405.51138367 -74.46800232 406.32015991 C-72.86684319 410.27376696 -71.25196614 414.22104793 -69.61425781 418.15966797 C-69.13027023 419.32537575 -69.13027023 419.32537575 -68.63650513 420.51463318 C-68.02713476 421.97961359 -67.4153705 423.4436015 -66.80075073 424.90638733 C-63.64366287 432.49569155 -61.91716034 439.95922682 -64.49609375 448.04296875 C-69.65623327 459.22609079 -78.20302892 462.87723605 -89.3125 467.1875 C-90.51583984 467.68507813 -91.71917969 468.18265625 -92.95898438 468.6953125 C-101.51437443 472.06015527 -110.55428563 474.5912425 -119.5 471.0625 C-122.625 469.3125 -122.625 469.3125 -125.3203125 467 C-128.62320293 464.833611 -128.62320293 464.833611 -132.4375 466.453125 C-133.8424154 467.13792291 -135.23797844 467.84214824 -136.625 468.5625 C-145.10898706 472.49968238 -152.7280522 474.14344868 -162.0234375 471.67578125 C-169.33902657 468.57856825 -174.15613596 461.9108689 -177.265625 454.83984375 C-178.15174224 452.64976398 -179.02027824 450.45252217 -179.875 448.25 C-180.37380762 447.00155709 -180.87428177 445.75377905 -181.3762207 444.5065918 C-182.50388627 441.69798462 -183.62211632 438.88583902 -184.73486328 436.07128906 C-186.80462733 430.84615414 -188.91462251 425.63757293 -191.02734375 420.4296875 C-194.25712211 412.46509873 -197.48035014 404.49792536 -200.6953125 396.52734375 C-205.51637793 384.57681253 -210.35056594 372.63161563 -215.1875 360.6875 C-216.2586671 358.0423008 -217.32979489 355.39708571 -218.40078735 352.7518158 C-219.03095593 351.19534798 -219.66121804 349.63891803 -220.29159546 348.08253479 C-221.07018341 346.15950808 -221.84764624 344.23602594 -222.625 342.3125 C-223.01196045 341.36544189 -223.3989209 340.41838379 -223.79760742 339.44262695 C-225.8251266 334.22276716 -226.08508451 329.4345468 -224.1796875 324.19921875 C-222.34508149 315.56554368 -227.61293906 307.03553187 -231 299.3125 C-232.08885361 296.76335243 -233.17041135 294.21122184 -234.25015259 291.65820312 C-234.92199702 290.07708154 -235.60064529 288.49883034 -236.28671265 286.92382812 C-238.625 281.52460357 -238.625 281.52460357 -238.625 279.3125 C-239.45 279.126875 -240.275 278.94125 -241.125 278.75 C-246.89398107 276.38059706 -251.12967305 272.8092532 -254.33984375 267.44921875 C-256.59763702 261.70245427 -256.06633606 255.38301225 -256 249.3125 C-255.99534729 248.64844147 -255.99069458 247.98438293 -255.98590088 247.30020142 C-255.55493584 194.60801616 -236.15569303 141.65040726 -203.625 100.3125 C-202.86703125 99.343125 -202.1090625 98.37375 -201.328125 97.375 C-189.00164204 81.98875177 -175.18859226 67.43456552 -159.625 55.3125 C-158.68914062 54.54808594 -157.75328125 53.78367188 -156.7890625 52.99609375 C-112.60659279 17.6160441 -56.22118234 -0.21958814 0 0 Z M-47.625 20.3125 C-48.53813965 20.50505371 -49.4512793 20.69760742 -50.39208984 20.89599609 C-56.19914911 22.16143391 -61.92148363 23.64335591 -67.625 25.3125 C-68.37507324 25.53131836 -69.12514648 25.75013672 -69.89794922 25.97558594 C-99.06831141 34.68183656 -127.41745629 49.57317427 -150.625 69.3125 C-151.78742746 70.29076035 -152.95021484 71.26859313 -154.11328125 72.24609375 C-157.29319381 74.9240268 -160.46155373 77.61514142 -163.625 80.3125 C-160.41739749 84.11885497 -157.21753891 87.85813567 -153.625 91.3125 C-149.68573264 89.97645478 -147.32962701 88.33898623 -144.375 85.4375 C-131.98775237 74.02000735 -117.39642324 65.27957559 -102.625 57.3125 C-101.96161621 56.9520459 -101.29823242 56.5915918 -100.61474609 56.22021484 C-80.8741599 45.69827609 -57.72740262 38.47671099 -35.625 35.3125 C-34.48748291 35.14024902 -33.34996582 34.96799805 -32.17797852 34.79052734 C-21.53771161 33.30071751 -11.04906736 32.91209013 -0.3125 32.9375 C0.55840271 32.93804382 1.42930542 32.93858765 2.32659912 32.93914795 C59.42251777 33.10211897 109.1391088 55.0383201 152.375 91.3125 C155.82701639 89.83528578 158.02461936 87.87455999 160.625 85.1875 C161.33140625 84.46304688 162.0378125 83.73859375 162.765625 82.9921875 C163.29671875 82.43789062 163.8278125 81.88359375 164.375 81.3125 C138.5490588 55.34918677 106.23978773 37.24625793 71.375 26.3125 C70.2607666 25.95913574 70.2607666 25.95913574 69.12402344 25.59863281 C50.86008428 19.900804 31.41797256 16.25869637 12.2578125 16.07421875 C10.98780396 16.05959595 10.98780396 16.05959595 9.69213867 16.04467773 C-9.76691604 15.86688829 -28.50678273 16.25493026 -47.625 20.3125 Z M173.08984375 94.5 C172.17332031 95.428125 171.25679688 96.35625 170.3125 97.3125 C168.93384766 98.7046875 168.93384766 98.7046875 167.52734375 100.125 C166.81707031 100.846875 166.10679687 101.56875 165.375 102.3125 C166.71104522 106.25176736 168.34851377 108.60787299 171.25 111.5625 C198.29286629 140.94186994 215.16998735 181.22519965 221.375 220.3125 C221.48537598 221.00069824 221.59575195 221.68889648 221.70947266 222.39794922 C223.10788343 231.43806926 223.69410427 240.44050946 223.94604492 249.57617188 C224.12954774 254.82151323 224.40066613 259.1187957 228.0625 263.1875 C231.47644385 264.84833755 233.76257223 264.23202707 237.375 263.3125 C239.56657638 261.68427256 240.28338768 260.81290807 240.77905273 258.10546875 C240.78880127 257.24566406 240.7985498 256.38585937 240.80859375 255.5 C240.81995361 254.5205542 240.83131348 253.5411084 240.84301758 252.53198242 C240.83294678 251.46955322 240.82287598 250.40712402 240.8125 249.3125 C240.80222778 247.65408081 240.80222778 247.65408081 240.79174805 245.9621582 C239.8487872 195.70976181 219.88161636 143.60212863 187.375 105.3125 C186.40815759 104.15031873 185.44206734 102.98751147 184.4765625 101.82421875 C183.46426438 100.61137559 182.45124771 99.39913179 181.4375 98.1875 C180.9520874 97.60572998 180.4666748 97.02395996 179.96655273 96.42456055 C178.79188609 95.03452788 177.58631978 93.67071093 176.375 92.3125 C174.96816238 92.19724951 174.96816238 92.19724951 173.08984375 94.5 Z M-162.8125 287.5625 C-163.79669922 287.95824219 -164.78089844 288.35398437 -165.79492188 288.76171875 C-170.55167959 290.73426954 -174.25651371 292.27759346 -177.625 296.3125 C-178.46317741 302.54319937 -176.2521986 307.22605003 -173.66992188 312.70703125 C-171.64006591 317.32077446 -171.37485487 320.43270645 -172.625 325.3125 C-174.625 327.3125 -174.625 327.3125 -178.5625 327.625 C-181.01406165 327.54534637 -182.30757349 327.49857761 -184.4375 326.25 C-186.1894457 323.39156228 -187.38969898 320.43016448 -188.625 317.3125 C-192.91645458 317.91548465 -196.76440479 318.88803897 -200.8125 320.4375 C-201.83730469 320.81132812 -202.86210937 321.18515625 -203.91796875 321.5703125 C-206.69705869 323.35887544 -208.34601352 324.81862909 -209.47045898 327.98291016 C-209.8521668 333.73686905 -206.75614984 339.23688027 -204.5625 344.4375 C-203.9917557 345.84174247 -203.42318996 347.24687216 -202.85668945 348.65283203 C-201.4095749 352.22663815 -199.93382231 355.78772167 -198.4465332 359.3449707 C-197.27192217 362.15810303 -196.1129554 364.97762212 -194.953125 367.796875 C-193.615988 371.03888176 -192.27435239 374.2787636 -190.921875 377.5144043 C-187.16579331 386.51474737 -183.50087413 395.55036947 -179.859375 404.59765625 C-179.60286982 405.23473007 -179.34636463 405.87180389 -179.08208656 406.52818298 C-176.45816492 413.04554811 -173.83711509 419.56405472 -171.22205544 426.08498096 C-170.47010754 427.95898275 -169.71705606 429.83253676 -168.96356201 431.70591736 C-168.02865732 434.03073343 -167.09573274 436.3563471 -166.1651001 438.68287659 C-162.8970035 448.5524106 -162.8970035 448.5524106 -156.625 456.3125 C-149.66545746 457.52285522 -142.75424672 454.46595302 -136.625 451.3125 C-135.36740187 447.53970562 -136.066151 446.55953906 -137.5546875 442.93359375 C-138.01190186 441.80566406 -138.46911621 440.67773438 -138.94018555 439.515625 C-139.46001191 438.26037037 -139.97995394 437.00516363 -140.5 435.75 C-141.03714277 434.43397237 -141.57333192 433.11755518 -142.10864258 431.80078125 C-143.2897312 428.8990002 -144.47605986 425.99943034 -145.66552734 423.10107422 C-147.75949766 417.99245497 -149.82827978 412.8737877 -151.89453125 407.75390625 C-152.6291449 405.93473086 -153.36376407 404.11555769 -154.09838867 402.29638672 C-155.20535707 399.55476701 -156.31225083 396.81311734 -157.41885376 394.0713501 C-162.49282667 381.50009448 -162.49282667 381.50009448 -167.7109375 368.98828125 C-168.14059814 367.96863281 -168.57025879 366.94898438 -169.01293945 365.8984375 C-169.76100319 364.13206793 -170.51892073 362.36981585 -171.28979492 360.61328125 C-173.23122774 356.01952378 -174.17595886 352.39778695 -173.625 347.3125 C-171.625 344.3125 -171.625 344.3125 -168.25 343.5625 C-163.32984722 343.22317912 -163.32984722 343.22317912 -160.625 344.3125 C-159.76722717 345.92008972 -159.76722717 345.92008972 -159.21118164 348.05932617 C-157.36186282 354.36364231 -154.78880646 360.31134327 -152.24609375 366.36328125 C-151.16265341 368.95808907 -150.08255192 371.5542775 -149.00341797 374.15087891 C-148.72549062 374.81933303 -148.44756327 375.48778715 -148.16121387 376.17649746 C-145.10307148 383.54628897 -142.12807446 390.94898778 -139.16015625 398.35546875 C-138.62182954 399.6971348 -138.08344856 401.03877907 -137.54501343 402.38040161 C-135.36816358 407.8062633 -133.19349636 413.23299083 -131.02416992 418.66186523 C-129.66532015 422.06193456 -128.30228866 425.46030271 -126.93667412 428.85766029 C-126.18647522 430.72737421 -125.4408181 432.59890847 -124.69532776 434.47050476 C-120.55988622 446.7781187 -120.55988622 446.7781187 -112.625 456.3125 C-105.84993558 456.91815767 -100.54863374 454.15708988 -94.4375 451.5625 C-93.34501953 451.1190625 -92.25253906 450.675625 -91.12695312 450.21875 C-90.08087891 449.78046875 -89.03480469 449.3421875 -87.95703125 448.890625 C-87.00546143 448.49262695 -86.0538916 448.09462891 -85.07348633 447.68457031 C-82.25706423 446.10631802 -81.00924935 445.24442766 -79.625 442.3125 C-79.8057779 436.27309109 -81.52236758 431.34360557 -83.84375 425.8203125 C-84.1730954 425.01446213 -84.5024408 424.20861176 -84.84176636 423.37834167 C-85.92733361 420.72766445 -87.02623597 418.08273076 -88.125 415.4375 C-88.89767611 413.55665611 -89.66930454 411.67538152 -90.43994141 409.79370117 C-92.03955474 405.89024106 -93.64364048 401.98866504 -95.25097656 398.08837891 C-98.5253013 390.13400448 -101.74648643 382.15827048 -104.96710205 374.18203735 C-106.35572577 370.74436694 -107.74720611 367.3078558 -109.13864136 363.87132263 C-112.65381425 355.18930614 -116.16379288 346.5051962 -119.671875 337.8203125 C-120.52685125 335.70401848 -121.3818317 333.58772615 -122.23681641 331.47143555 C-124.24646804 326.49699432 -126.25490124 321.52206219 -128.26296997 316.54698181 C-129.35709571 313.8409475 -130.45620067 311.13697458 -131.55566406 308.43310547 C-132.92698959 305.05625033 -134.27036066 301.67021684 -135.59277344 298.27392578 C-135.90374969 297.48764297 -136.21472595 296.70136017 -136.53512573 295.89125061 C-137.11199301 294.43235479 -137.67985882 292.9698518 -138.23660278 291.50315857 C-139.74268809 287.73050668 -140.98814606 285.26895349 -144.625 283.3125 C-151.30928917 282.31969905 -156.78278332 285.01315656 -162.8125 287.5625 Z M141.375 287.3125 C140.22025525 289.59982412 139.21553998 291.8039283 138.265625 294.171875 C137.98218231 294.85563202 137.69873962 295.53938904 137.40670776 296.24386597 C136.46946898 298.51277186 135.54710574 300.78740626 134.625 303.0625 C133.96144066 304.67914719 133.29720149 306.29551549 132.63232422 307.91162109 C126.82733887 322.05896982 121.15740308 336.26179582 115.49958801 350.46850586 C111.28965634 361.03929194 107.04138609 371.59409424 102.76940918 382.13995361 C101.69777366 384.78712186 100.62844333 387.43521136 99.55957031 390.08349609 C96.52886968 397.58483415 93.48604791 405.07942904 90.35325623 412.53881836 C89.10343949 415.51543928 87.86328948 418.49604685 86.62338257 421.47680664 C85.77439104 423.50425265 84.9096455 425.52446277 84.04418945 427.54492188 C83.29141724 429.35573242 83.29141724 429.35573242 82.5234375 431.203125 C82.08177246 432.24500977 81.64010742 433.28689453 81.18505859 434.36035156 C80.22677496 437.85268603 80.30978999 439.85747869 81.375 443.3125 C85.2116534 448.18861445 90.59024685 449.81186907 96.1875 452.0625 C97.16009766 452.47371094 98.13269531 452.88492188 99.13476562 453.30859375 C106.52421764 456.41801581 106.52421764 456.41801581 114.375 456.3125 C118.4989275 452.0786714 120.68304405 447.93042272 122.765625 442.453125 C123.06752243 441.68779449 123.36941986 440.92246399 123.6804657 440.13394165 C124.67218913 437.61400031 125.64832425 435.08830691 126.625 432.5625 C127.32231722 430.784796 128.02099145 429.00762376 128.72094727 427.23095703 C129.81651302 424.44975889 130.91125399 421.66826717 132.00196838 418.88516235 C136.72661324 406.83330911 141.6072851 394.84474857 146.48022461 382.85229492 C147.17694838 381.13721833 147.87364495 379.42213068 148.5703125 377.70703125 C148.90347977 376.88730331 149.23664703 376.06757538 149.57991028 375.2230072 C151.515246 370.45453392 153.42247544 365.67640743 155.3046875 360.88671875 C155.71855713 359.84338379 156.13242676 358.80004883 156.55883789 357.72509766 C157.27880904 355.90702644 157.98988638 354.08539051 158.68920898 352.25927734 C161.52270698 345.15195107 161.52270698 345.15195107 165.375 343.3125 C171.70227273 343.63977273 171.70227273 343.63977273 174.375 346.3125 C174.80639424 352.01686798 174.11932732 355.92930495 171.91015625 361.2734375 C171.64557617 361.92495789 171.38099609 362.57647827 171.10839844 363.2477417 C170.23096322 365.39985671 169.33428727 367.54338547 168.4375 369.6875 C167.8110366 371.21411459 167.18598728 372.74131013 166.56225586 374.26904297 C165.22246212 377.54600115 163.87534998 380.81982053 162.5234375 384.09179688 C160.29114314 389.50365217 158.0955474 394.93000754 155.90625 400.359375 C155.53358505 401.28324005 155.1609201 402.2071051 154.77696228 403.15896606 C154.02987329 405.01116789 153.28283817 406.86339144 152.53585815 408.71563721 C150.78934517 413.04370513 149.03824845 417.36990587 147.28515625 421.6953125 C146.95906876 422.50088593 146.63298126 423.30645935 146.29701233 424.13644409 C144.65507702 428.18573164 142.99816369 432.22802011 141.31591797 436.26074219 C140.98861191 437.04722137 140.66130585 437.83370056 140.32408142 438.64401245 C139.70364852 440.13207787 139.08023395 441.61890476 138.4533844 443.10427856 C136.90419898 446.58917218 136.90419898 446.58917218 136.375 450.3125 C138.55609952 451.32893473 140.74316462 452.32538256 142.9375 453.3125 C143.54658203 453.59867188 144.15566406 453.88484375 144.78320312 454.1796875 C149.14568246 456.1185672 152.62517355 456.94505715 157.375 456.3125 C160.59169571 453.64094876 162.17140408 451.0772555 163.72265625 447.23046875 C164.15271973 446.17859375 164.5827832 445.12671875 165.02587891 444.04296875 C165.49171387 442.87378906 165.95754883 441.70460938 166.4375 440.5 C166.95143161 439.23141414 167.4662763 437.96319788 167.98193359 436.6953125 C169.14084841 433.84008076 170.29300299 430.98223004 171.44091797 428.12255859 C173.53184032 422.91609582 175.6427732 417.71782454 177.75390625 412.51953125 C181.38597966 403.57192831 184.99751095 394.61618689 188.60203552 385.65745544 C191.15636089 379.31584301 193.73235785 372.98351092 196.32455444 366.6572876 C198.02592258 362.50048674 199.71713578 358.33959823 201.40667725 354.17797852 C202.2144819 352.19515217 203.02681403 350.2141639 203.84381104 348.23510742 C204.97547466 345.49214006 206.09102906 342.74313467 207.203125 339.9921875 C207.54167511 339.18292816 207.88022522 338.37366882 208.22903442 337.53988647 C210.43561628 332.04436328 210.43561628 332.04436328 209.375 326.3125 C206.28708692 322.18509143 202.29920201 320.79434044 197.625 319.0625 C196.92761719 318.794375 196.23023438 318.52625 195.51171875 318.25 C193.80310267 317.59464041 192.08952281 316.95224732 190.375 316.3125 C188.395 319.9425 186.415 323.5725 184.375 327.3125 C177.5390625 327.5078125 177.5390625 327.5078125 175.375 327.3125 C172.88462288 324.82212288 172.61303028 323.81630575 172.375 320.3125 C173.23264065 317.54078717 174.14328552 314.97845222 175.25 312.3125 C178.72064072 304.71131758 178.72064072 304.71131758 178.69921875 296.65234375 C176.25632529 292.33584468 171.78176568 291.19639233 167.375 289.3125 C166.77300781 289.04727539 166.17101562 288.78205078 165.55078125 288.50878906 C163.60349801 287.65463084 161.64783486 286.82372535 159.6875 286 C159.07044189 285.73324463 158.45338379 285.46648926 157.81762695 285.19165039 C151.18508771 282.49986448 146.16856422 281.52079152 141.375 287.3125 Z " fill="#000000" transform="translate(255.625,19.6875)"/>
</svg>
