<?xml version="1.0" encoding="UTF-8"?>
<svg version="1.1" xmlns="http://www.w3.org/2000/svg" width="512" height="512">
<path d="M0 0 C4.93265606 4.8061777 6.65822819 7.54453808 6.94086456 14.49061489 C6.96292053 17.05215031 6.96338944 19.60801494 6.94543457 22.16905212 C6.95004502 23.59485227 6.95639891 25.02064766 6.96434355 26.44643313 C6.98104225 30.36039347 6.97278802 34.27396371 6.96039867 38.18792546 C6.95135191 42.41107712 6.96531655 46.63416149 6.97631836 50.8572998 C6.99411633 59.13136923 6.99025671 67.40529359 6.9786678 75.67936873 C6.96963328 82.40870526 6.96840958 89.13800114 6.97276306 95.867342 C6.97337599 96.82524856 6.97398893 97.78315513 6.97462043 98.77008917 C6.97589936 100.71619301 6.97719621 102.66229683 6.9785108 104.60840065 C6.98992176 122.86580769 6.97679767 141.12313446 6.95530933 159.38052834 C6.93746361 175.02659373 6.94052059 190.67254031 6.95898438 206.31860352 C6.98042639 224.49684195 6.988796 242.67500983 6.97653532 260.85325915 C6.97526118 262.79494479 6.97400369 264.73663045 6.97276306 266.67831612 C6.97183741 268.1112146 6.97183741 268.1112146 6.97089306 269.57306052 C6.96744821 276.28520948 6.97325033 282.9973135 6.98268127 289.70945549 C6.99394083 297.90318585 6.99077957 306.09676309 6.9695583 314.29047608 C6.95909687 318.46653615 6.95484109 322.64234164 6.96815491 326.81839943 C6.98018909 330.65134776 6.97333762 334.48380872 6.9522447 338.31671364 C6.9457515 340.33937062 6.95861615 342.36206219 6.97247362 344.38468212 C6.87106844 356.38983736 4.37851119 367.9599554 -1.3125 378.625 C-1.65611572 379.28773926 -1.99973145 379.95047852 -2.35375977 380.63330078 C-14.30517154 403.09901537 -33.42637587 420.40623106 -57.5390625 428.5 C-70.22723192 432.17202836 -86.66678448 432.53255787 -98.5625 426.375 C-101.48968187 424.6115762 -104.02016436 422.6526239 -106.5625 420.375 C-107.16707031 419.87355469 -107.77164062 419.37210937 -108.39453125 418.85546875 C-116.22117597 411.84729668 -120.8541717 401.32296475 -121.78149414 390.91772461 C-122.96735993 364.45979629 -114.40033948 343.93117684 -97.0625 324.125 C-84.31925354 310.35968428 -66.22903353 297.53763759 -46.93066406 296.19140625 C-30.78522834 295.63409055 -30.78522834 295.63409055 -25.5625 297.375 C-25.5625 236.985 -25.5625 176.595 -25.5625 114.375 C-53.2825 119.325 -81.0025 124.275 -109.5625 129.375 C-134.33928796 133.76874108 -159.11642286 138.15996801 -183.89643097 142.53543091 C-190.66657466 143.7310845 -197.43625386 144.92935519 -204.2058807 146.12793106 C-210.98176995 147.3274747 -217.75800083 148.52507508 -224.53450054 149.72116524 C-228.51582587 150.42393547 -232.49700482 151.12750954 -236.47781563 151.83318901 C-240.14495153 152.48321657 -243.81250267 153.13084542 -247.48040009 153.77656174 C-249.45815959 154.12537673 -251.4354692 154.47673956 -253.4127655 154.82817078 C-254.58286163 155.03367554 -255.75295776 155.2391803 -256.95851135 155.45091248 C-258.48312406 155.72034998 -258.48312406 155.72034998 -260.03853703 155.99523067 C-262.5625 156.375 -262.5625 156.375 -265.5625 156.375 C-265.55881283 157.63414498 -265.55512566 158.89328997 -265.55132675 160.19059086 C-265.46455725 190.12972003 -265.39866902 220.06881659 -265.35823868 250.00804082 C-265.3532363 253.69896428 -265.34805896 257.38988748 -265.34277344 261.08081055 C-265.3417242 261.81555774 -265.34067495 262.55030493 -265.33959392 263.30731719 C-265.32222364 275.17946749 -265.29070473 287.05153973 -265.25388882 298.92364383 C-265.21638509 311.11993524 -265.19424429 323.31618596 -265.18614602 335.51253265 C-265.18067771 343.02872696 -265.16345337 350.54470057 -265.13083413 358.06082689 C-265.10704337 363.83966065 -265.10470381 369.61835531 -265.11006927 375.39722824 C-265.10897458 377.75656295 -265.10109521 380.11590652 -265.0856781 382.47519112 C-264.9877073 398.24991465 -265.72653455 412.40878129 -273.3125 426.625 C-273.65611572 427.28773926 -273.99973145 427.95047852 -274.35375977 428.63330078 C-286.30517154 451.09901537 -305.42637587 468.40623106 -329.5390625 476.5 C-342.22723192 480.17202836 -358.66678448 480.53255787 -370.5625 474.375 C-373.48968187 472.6115762 -376.02016436 470.6526239 -378.5625 468.375 C-379.16707031 467.87355469 -379.77164063 467.37210937 -380.39453125 466.85546875 C-388.22117597 459.84729668 -392.8541717 449.32296475 -393.78149414 438.91772461 C-394.96735993 412.45979629 -386.40033948 391.93117684 -369.0625 372.125 C-356.45806241 358.53617509 -338.40160154 345.26515797 -319.11474609 344.24560547 C-318.28023926 344.24447754 -317.44573242 344.24334961 -316.5859375 344.2421875 C-315.20921875 344.24025391 -315.20921875 344.24025391 -313.8046875 344.23828125 C-312.85851562 344.24214844 -311.91234375 344.24601562 -310.9375 344.25 C-309.98359375 344.24613281 -309.0296875 344.24226563 -308.046875 344.23828125 C-307.13164062 344.23957031 -306.21640625 344.24085938 -305.2734375 344.2421875 C-304.44118652 344.24331543 -303.60893555 344.24444336 -302.75146484 344.24560547 C-300.5625 344.375 -300.5625 344.375 -297.5625 345.375 C-297.56401888 344.76576309 -297.56553776 344.15652618 -297.56710267 343.52882755 C-297.6565932 307.42948092 -297.7252352 271.33015068 -297.76676132 235.23071586 C-297.77176421 230.89729997 -297.77694149 226.56388431 -297.78222656 222.23046875 C-297.7832758 221.36775494 -297.78432505 220.50504114 -297.78540608 219.61618449 C-297.80281664 205.64280602 -297.8343579 191.66949331 -297.87111118 177.69615386 C-297.90850252 163.36079168 -297.93073202 149.02546396 -297.93885398 134.69005501 C-297.94434551 125.84259446 -297.96169695 116.99531975 -297.99416587 108.14791639 C-298.01529145 102.08290309 -298.02170449 96.01798603 -298.01650551 89.9529386 C-298.01394065 86.45240717 -298.01790316 82.95220073 -298.0393219 79.45172691 C-298.0591608 75.65691826 -298.05446033 71.8629111 -298.04351807 68.06808472 C-298.05516943 66.96107771 -298.0668208 65.8540707 -298.07882524 64.71351802 C-298.03249039 58.78713269 -297.78517286 54.91144818 -293.5625 50.375 C-288.7092407 46.25093677 -283.99443684 45.3436838 -277.89424133 44.34645081 C-276.93766754 44.17815053 -275.98109375 44.00985026 -274.99553287 43.83644998 C-271.82768879 43.28215209 -268.65680171 42.7478327 -265.4855957 42.21313477 C-263.23389719 41.82252154 -260.9824557 41.43042418 -258.73125935 41.03692722 C-254.02476434 40.21578179 -249.31712703 39.40170063 -244.60852432 38.59273148 C-234.74147801 36.89336558 -224.88780193 35.11998879 -215.03294885 33.35157096 C-209.53482145 32.366299 -204.0355129 31.38767394 -198.53617859 30.40916443 C-197.42100139 30.21070744 -196.30582419 30.01225045 -195.15685374 29.80777961 C-179.33398935 26.99275 -163.50974023 24.18550691 -147.68502331 21.38091183 C-134.86155566 19.10799564 -122.03889656 16.83069013 -109.21801758 14.54321289 C-97.88296303 12.52083935 -86.54654898 10.50630232 -75.20841676 8.50125223 C-69.25026099 7.44734269 -63.2928294 6.38968698 -57.3370266 5.32255363 C-51.7706878 4.32533775 -46.2025763 3.33869717 -40.63294983 2.36001587 C-38.60101382 2.00109133 -36.56973956 1.63839538 -34.53922462 1.2715168 C-7.79392857 -3.55512531 -7.79392857 -3.55512531 0 0 Z M-36.44064331 35.30581665 C-38.21052266 35.61620093 -38.21052266 35.61620093 -40.01615715 35.93285561 C-41.94924579 36.27860917 -41.94924579 36.27860917 -43.92138672 36.63134766 C-45.30262961 36.87525169 -46.68393909 37.11877882 -48.06530952 37.36195946 C-51.83393266 38.0265108 -55.60159581 38.69636806 -59.36911774 39.36713028 C-63.37142621 40.07874143 -67.37460427 40.7854274 -71.37768555 41.49267578 C-79.0786032 42.85402664 -86.77872668 44.21981743 -94.47857547 45.58719945 C-103.28640227 47.15116924 -112.0950061 48.71073971 -120.90367723 50.26994586 C-134.73914435 52.71901158 -148.57413833 55.17073403 -162.40872359 57.62477612 C-177.6641252 60.33080789 -192.92069475 63.03007268 -208.1790123 65.71962357 C-213.78962521 66.70873742 -219.40001647 67.69910769 -225.0104084 68.68947411 C-229.10816764 69.41275819 -233.20602877 70.13545293 -237.30413818 70.85675049 C-240.9982706 71.5070404 -244.69202604 72.15942673 -248.38546753 72.81362915 C-250.28494392 73.14951913 -252.1848218 73.48313628 -254.0847168 73.81665039 C-255.72476685 74.1077771 -255.72476685 74.1077771 -257.39794922 74.40478516 C-258.33323456 74.56983551 -259.2685199 74.73488586 -260.23214722 74.90493774 C-262.70325813 75.35391894 -262.70325813 75.35391894 -265.5625 76.375 C-265.5625 91.555 -265.5625 106.735 -265.5625 122.375 C-258.46630538 121.7298914 -251.65368638 120.99730724 -244.68005371 119.74291992 C-243.2848065 119.49768349 -243.2848065 119.49768349 -241.86137247 119.24749279 C-238.77854179 118.70449394 -235.69690649 118.15500151 -232.61523438 117.60546875 C-230.39197516 117.21247281 -228.1686456 116.81987473 -225.94525146 116.42764282 C-219.93274752 115.36575044 -213.92127004 114.29815034 -207.9099865 113.22937393 C-201.61520987 112.11106889 -195.31957284 110.9976278 -189.02404785 109.88354492 C-178.46208928 108.01370879 -167.90076132 106.14035298 -157.33984375 104.26464844 C-146.47454641 102.33488712 -135.60868342 100.40835238 -124.7421875 98.48535156 C-124.07171267 98.36669987 -123.40123783 98.24804817 -122.71044558 98.12580097 C-122.04112043 98.00735297 -121.37179529 97.88890497 -120.68218756 97.76686764 C-107.67204049 95.46448241 -94.66251618 93.15859285 -81.65316963 90.85168839 C-77.90144777 90.18664875 -74.14961195 89.52225533 -70.39775085 88.85800171 C-64.51389192 87.81610635 -58.63044804 86.77189801 -52.74732208 85.72587204 C-50.58466113 85.34171274 -48.42186223 84.95832913 -46.25891876 84.5757637 C-43.31526002 84.05497156 -40.37210951 83.53139858 -37.42907715 83.00708008 C-36.13440844 82.77901562 -36.13440844 82.77901562 -34.8135848 82.5463438 C-31.64515513 81.97944478 -28.62072118 81.39440706 -25.5625 80.375 C-25.5625 65.195 -25.5625 50.015 -25.5625 34.375 C-29.4836883 34.375 -32.63286286 34.63110714 -36.44064331 35.30581665 Z M-65.671875 339.859375 C-71.99105833 345.30336857 -77.28801808 351.17828513 -81.5625 358.375 C-82.03300781 359.16390625 -82.50351562 359.9528125 -82.98828125 360.765625 C-87.73127001 369.44011772 -91.01395574 379.56917704 -88.5625 389.375 C-86.86077078 393.0215626 -85.09830212 395.41066549 -81.5625 397.375 C-73.34680429 399.72234163 -65.49234085 396.5427238 -58.125 392.875 C-47.91408072 386.97341003 -39.57659045 378.48447645 -33.5625 368.375 C-33.09199219 367.59769531 -32.62148438 366.82039063 -32.13671875 366.01953125 C-27.25857349 357.19857832 -23.95926754 346.42455726 -26.63671875 336.4375 C-28.27489368 332.7878951 -30.11478132 331.43037075 -33.5625 329.375 C-45.1427845 326.57921115 -56.81673751 332.78416464 -65.671875 339.859375 Z M-337.671875 387.859375 C-343.99105833 393.30336857 -349.28801808 399.17828513 -353.5625 406.375 C-354.03300781 407.16390625 -354.50351562 407.9528125 -354.98828125 408.765625 C-359.9410105 417.8237139 -362.93421387 427.80719075 -360.484375 438.0546875 C-358.9176295 441.99810627 -357.27183103 443.27537866 -353.5625 445.375 C-345.50765043 447.90201163 -337.37189493 444.48276155 -330.125 440.875 C-319.91408072 434.97341003 -311.57659045 426.48447645 -305.5625 416.375 C-305.09199219 415.59769531 -304.62148438 414.82039063 -304.13671875 414.01953125 C-299.25857349 405.19857832 -295.95926754 394.42455726 -298.63671875 384.4375 C-300.27489368 380.7878951 -302.11478132 379.43037075 -305.5625 377.375 C-317.1427845 374.57921115 -328.81673751 380.78416464 -337.671875 387.859375 Z " fill="#000000" transform="translate(449.5625,17.625)"/>
</svg>
