<?xml version="1.0" encoding="UTF-8"?>
<svg version="1.1" xmlns="http://www.w3.org/2000/svg" width="512" height="512">
<path d="M0 0 C3.76391134 2.45091901 6.03249937 4.96144608 8 9 C8 9.99 8 10.98 8 12 C8.97839844 11.855625 9.95679688 11.71125 10.96484375 11.5625 C24.41981588 9.63029243 40.17186797 7.63778573 52 16 C58.22602749 22.08767133 60.0347207 27.70058546 60.15136719 36.17626953 C60.26482985 45.05174861 60.26482985 45.05174861 65 52.4375 C66.31890695 53.64100259 67.64910153 54.83252094 69 56 C70.43304064 58.86608129 70.30644155 60.81300783 70 64 C66.84210526 69.57894737 66.84210526 69.57894737 64 71 C61.06920681 71.28362515 58.84691694 71.49240909 56 71 C52.30725874 67.70647401 50.77384782 63.52331194 49 59 C45.535 63.95 45.535 63.95 42 69 C43.2375 69.391875 44.475 69.78375 45.75 70.1875 C49.74227555 71.71645659 51.92731177 73.11370956 54 77 C54.6575654 79.84368195 54.74780837 82.16860341 54 85 C50.94854964 88.57242969 49.08575513 89.82856498 44.4375 90.5625 C39.49435529 89.75362178 37.26266887 87.56745101 34.1875 83.75 C33.795625 83.1725 33.40375 82.595 33 82 C31.68 83.65 30.36 85.3 29 87 C29.763125 87.7425 30.52625 88.485 31.3125 89.25 C36.84103328 94.90710383 36.84103328 94.90710383 37.5 99.4375 C37 103 37 103 34.875 105.9375 C32 108 32 108 29.0625 108.5625 C23.81149453 107.59802961 20.84091514 105.20216389 17.80859375 100.8671875 C15.52249506 98.08117816 15.12425043 98.01919526 11.2578125 97.421875 C9.87753959 97.4897192 8.49885658 97.60075451 7.125 97.75 C6.40900635 97.81437256 5.6930127 97.87874512 4.95532227 97.94506836 C-1.10800863 98.66816693 -4.27647087 100.30733315 -8 105 C-9.12443529 106.27133301 -10.24946302 107.54214223 -11.375 108.8125 C-11.94992187 109.48925781 -12.52484375 110.16601562 -13.1171875 110.86328125 C-15.15639232 113.17748257 -17.30243458 115.33595677 -19.5 117.5 C-22.28621141 120.2485599 -24.95308392 123.02859791 -27.5 126 C-30.75164628 129.79358733 -34.25713094 133.27392647 -37.8125 136.78125 C-39.79720342 138.79430632 -41.66096916 140.85446403 -43.5 143 C-46.68004656 146.71005432 -50.08761802 150.12977867 -53.59375 153.53125 C-55.51786712 155.50534419 -57.304334 157.50183749 -59.09375 159.59375 C-64.23052894 165.51401187 -69.87945364 170.93745061 -75.45703125 176.43652344 C-80.63916161 181.55230577 -85.71701042 186.69372528 -90.453125 192.23046875 C-92.83636406 194.9567498 -95.40823474 197.47391969 -98 200 C-101.959 203.89956291 -105.70320783 207.86687988 -109.26171875 212.140625 C-111.98203751 215.05044911 -115.17308056 217.39069094 -118.375 219.75 C-120.34504141 221.99394914 -120.34504141 221.99394914 -119.88671875 225.375 C-119.60243071 226.91878748 -119.30503107 228.46017679 -119 230 C-118.6688774 232.18685329 -118.34248851 234.37442594 -118.01953125 236.5625 C-115.86305344 250.08809568 -113.37171333 262.39892032 -108 275 C-102.84404058 289.93038443 -101.95178646 305.67248367 -108.8125 320.3125 C-109.5134154 321.5579928 -110.24300768 322.78777174 -111 324 C-111.57814453 324.96292969 -111.57814453 324.96292969 -112.16796875 325.9453125 C-120.2274891 337.99914059 -132.81390086 342.91681679 -145.70068359 348.06787109 C-157.68997821 352.92825831 -167.14340004 357.81524294 -172.47509766 370.27099609 C-177.73455705 383.70299918 -179.46923422 398.14982179 -181.49536133 412.34057617 C-185.1860913 438.1899704 -191.63427644 462.36780316 -213.24609375 479.01953125 C-233.74048729 493.75805256 -257.57656224 497.52440997 -282.25 493.9375 C-327.39343024 486.49982883 -369.56795078 456.42962528 -396.06030273 419.72290039 C-411.6696334 397.56744738 -424.50418586 371.46858695 -426 344 C-426.05285156 343.26007813 -426.10570312 342.52015625 -426.16015625 341.7578125 C-426.90811832 322.44087902 -419.64922214 303.05513891 -407.3125 288.3125 C-396.34594362 276.69591829 -382.12857637 268.66699559 -366.76953125 264.515625 C-365.61592354 264.19984497 -365.61592354 264.19984497 -364.43901062 263.87768555 C-354.29995261 261.1826081 -343.9767838 259.38542599 -333.65991211 257.52050781 C-312.462257 253.66389965 -288.707496 248.57352904 -275.1875 230.1875 C-269.70071699 221.70212628 -266.44434021 212.52533139 -263.0625 203.0625 C-256.85864551 185.80910875 -250.10960871 171.78667494 -233 163 C-223.56958929 158.69247145 -212.06172542 158.30596166 -202.25 161.5625 C-191.53493055 166.27619945 -183.52124911 172.9514694 -175.5 181.375 C-173.76489458 183.17879728 -172.02551608 184.97849703 -170.28125 186.7734375 C-169.52908203 187.56153809 -168.77691406 188.34963867 -168.00195312 189.16162109 C-166.0415517 191.21323052 -166.0415517 191.21323052 -163 192 C-162.3709375 191.35933594 -161.741875 190.71867188 -161.09375 190.05859375 C-160.2378125 189.19363281 -159.381875 188.32867187 -158.5 187.4375 C-157.24703125 186.16712891 -157.24703125 186.16712891 -155.96875 184.87109375 C-153.77601015 182.70202206 -151.49304655 180.67284232 -149.15625 178.66015625 C-144.89716572 174.96864824 -140.94495889 171.02200887 -137 167 C-133.11716293 163.04132627 -129.23659338 159.14941662 -125.03125 155.53125 C-120.62796818 151.73857952 -116.57013076 147.64426794 -112.5 143.5 C-107.8066805 138.72119198 -103.06008022 134.12844906 -97.98242188 129.75976562 C-94.49728173 126.66605994 -91.26192574 123.32563522 -88 120 C-83.48024688 115.39197045 -78.89067773 110.98982203 -74 106.77734375 C-70.51028722 103.67613415 -67.2678338 100.33165868 -64 97 C-59.43147822 92.34224927 -54.79451527 87.8734615 -49.85253906 83.61230469 C-42.70759016 77.39390161 -35.24629333 70.60008776 -31 62 C-31 61.01 -31 60.02 -31 59 C-33.09407841 57.2520423 -33.09407841 57.2520423 -35.75 55.625 C-40.21593256 52.63718374 -43.56038691 49.87922618 -46 45 C-46.38252066 41.48080989 -46.44502678 39.65863963 -44.4375 36.6875 C-41.16042374 34.4187549 -38.98262967 34 -35 34 C-29.81915275 36.53755784 -26.51938392 40.5570898 -23 45 C-21.02 42.03 -21.02 42.03 -19 39 C-19.7425 38.443125 -20.485 37.88625 -21.25 37.3125 C-25.20376942 33.98773935 -27.56207626 31.53273307 -29 26.5 C-29 23 -29 23 -27.625 20.0625 C-24.33022357 17.47374709 -22.29240543 17.28410185 -18.18359375 17.5 C-14.74818178 18.28664174 -13.16176799 20.32958072 -11 23 C-10.01 23.66 -9.02 24.32 -8 25 C-7.01 23.35 -6.02 21.7 -5 20 C-5.94875 19.2575 -6.8975 18.515 -7.875 17.75 C-11.42796737 14.75846851 -12.74447196 12.71568824 -13.4375 8.0625 C-12.85131947 3.9592363 -11.12521724 2.6043477 -8 0 C-5.0233079 -1.48834605 -3.18307201 -0.8113713 0 0 Z M5 34 C3.30424559 36.12176775 1.72739752 38.21043895 0.1875 40.4375 C-0.45989136 41.36393311 -0.45989136 41.36393311 -1.12036133 42.30908203 C-7.09458656 50.93741764 -12.47022903 59.45596412 -16.4375 69.1875 C-20.73806792 79.58033448 -27.90117576 86.18339089 -36.2578125 93.51171875 C-40.0399983 96.94370216 -43.61500327 100.56680116 -47.18261719 104.2199707 C-49.99148062 107.07458255 -52.86343084 109.7840955 -55.8984375 112.3984375 C-60.14273118 116.06695883 -64.0734363 119.99674561 -68 124 C-72.51975312 128.60802955 -77.10932227 133.01017797 -82 137.22265625 C-85.48971278 140.32386585 -88.7321662 143.66834132 -92 147 C-96.52978713 151.61825953 -101.12959484 156.0319728 -106.03125 160.25390625 C-109.33738101 163.18612958 -112.40917665 166.34410669 -115.5 169.5 C-119.15170677 173.22858481 -122.80682943 176.88165218 -126.77420044 180.27639771 C-130.81557304 183.79357088 -134.62234983 187.49386156 -138.39404297 191.29638672 C-139.08450211 191.98830612 -139.77496124 192.68022552 -140.48634338 193.39311218 C-141.96989367 194.88043911 -143.45228876 196.36891907 -144.93362045 197.85845566 C-147.2763546 200.21404204 -149.62227638 202.56641233 -151.96902466 204.91799927 C-156.94050736 209.90085484 -161.90802612 214.88765051 -166.875 219.875 C-172.6531357 225.67672956 -178.43288086 231.47683669 -184.21683121 237.27276993 C-186.53111152 239.59354535 -188.84236855 241.91730354 -191.15353394 244.24118042 C-192.56298375 245.65426036 -193.9725728 247.06720143 -195.38232422 248.47998047 C-196.02646774 249.12929031 -196.67061127 249.77860016 -197.33427429 250.44758606 C-203.02629236 256.14028586 -203.02629236 256.14028586 -208 256.25 C-209.051875 256.28867187 -209.051875 256.28867187 -210.125 256.328125 C-211.053125 256.16570312 -211.053125 256.16570312 -212 256 C-214.54942138 252.17586794 -214.59616601 250.54576584 -214 246 C-210.44994135 240.00422223 -205.34508975 235.07369146 -200.4140625 230.21875 C-199.71227875 229.51979614 -199.010495 228.82084229 -198.28744507 228.10070801 C-196.07133011 225.89568057 -193.84832323 223.6977567 -191.625 221.5 C-190.11021356 219.99525814 -188.59588618 218.490054 -187.08203125 216.984375 C-183.39330258 213.31755487 -179.69838115 209.6570833 -176 206 C-191.29970086 186.23452826 -191.29970086 186.23452826 -212.76171875 175.62890625 C-221.29180576 175.43529947 -227.29496071 177.13310536 -233.9296875 182.5859375 C-241.74484529 190.54003143 -245.430606 202.07940495 -248.9375 212.4375 C-256.38158075 234.32744541 -268.07101683 251.50594938 -289.18798828 262.13330078 C-305.33732099 269.85765151 -324.22815091 271.92413364 -341.6484375 275.28125 C-363.77891677 279.61213874 -384.80538424 285.7743876 -398.8125 304.875 C-408.85909851 320.13445623 -411.74270374 337.18180685 -408.08984375 355.06640625 C-401.96797744 380.81501738 -389.07838695 402.99388957 -372 423 C-371.319375 423.804375 -370.63875 424.60875 -369.9375 425.4375 C-365.62289451 430.42626259 -361.05566193 434.77661867 -356 439 C-355.15050781 439.74894531 -354.30101562 440.49789063 -353.42578125 441.26953125 C-327.9397217 463.34817765 -293.91865162 480.33878433 -259.52734375 478.875 C-242.21203903 477.6179124 -227.53160247 470.88534876 -215.3125 458.5 C-202.78996821 443.73730153 -199.4013068 425.45574077 -196.57421875 406.83984375 C-196.44899841 406.02078552 -196.32377808 405.20172729 -196.19476318 404.35784912 C-195.57059741 400.25152686 -194.96843359 396.1440154 -194.40576172 392.02880859 C-191.85006645 374.05785102 -187.34281667 355.00787326 -172.76171875 342.90234375 C-164.56626532 337.25710213 -155.31277912 333.43153434 -146.0625 329.875 C-136.5971866 326.17854603 -127.81067665 321.42708352 -123.00390625 312.05859375 C-117.52467097 298.66199458 -122.09035081 286.59589091 -126.4375 273.5625 C-130.21326392 262.23421487 -132.28551974 250.79706243 -134 239 C-137.35043397 240.45188594 -139.50486196 242.2819659 -142.046875 244.88671875 C-142.81 245.66080078 -143.573125 246.43488281 -144.359375 247.23242188 C-145.14828125 248.04259766 -145.9371875 248.85277344 -146.75 249.6875 C-148.30474872 251.27723056 -149.86201896 252.86449923 -151.421875 254.44921875 C-152.10862305 255.15393311 -152.79537109 255.85864746 -153.50292969 256.5847168 C-156.22512605 259.21775244 -159.05188745 261.69589981 -161.91046143 264.17887878 C-167.34663137 268.91673074 -172.63135859 273.80623731 -177.84814453 278.78393555 C-179.2805763 280.13429583 -180.72964188 281.46722982 -182.19482422 282.78198242 C-191.55874876 290.77611102 -191.55874876 290.77611102 -195.87646484 301.81176758 C-195.95812155 304.93323978 -195.73492263 307.94166856 -195.36865234 311.03955078 C-194.53199891 320.02775739 -199.43700274 328.2173747 -205 335 C-211.98463088 342.67892819 -221.58301028 348.295751 -232.11547852 349.17700195 C-252.27532055 349.72280288 -252.27532055 349.72280288 -261 345 C-261.79535156 344.57589844 -262.59070313 344.15179688 -263.41015625 343.71484375 C-272.96700825 337.98711442 -279.51827052 328.36352277 -282.25 317.625 C-284.41099221 306.11280514 -282.47757207 295.20549389 -276.3125 285.125 C-269.52935665 275.81312814 -259.19347204 270.08007199 -248 268 C-233.23254616 266.52567683 -219.79692362 268.37678976 -208 278 C-206.32588257 279.65918245 -204.65845579 281.32516271 -203 283 C-193.86067031 273.88389237 -184.72408181 264.76504708 -175.5909338 255.64274597 C-171.34947038 251.40648984 -167.10708649 247.17116433 -162.86254883 242.93798828 C-158.7625066 238.84885167 -154.66494805 234.75724111 -150.56906319 230.66394043 C-149.0099369 229.10665459 -147.44993416 227.5502457 -145.88902092 225.99475098 C-143.69440319 223.80744562 -141.50298935 221.61697602 -139.31225586 219.42578125 C-138.67352036 218.79064102 -138.03478485 218.15550079 -137.37669373 217.50111389 C-133.58422186 213.70005366 -129.98656908 209.77909895 -126.48436832 205.70866394 C-124.75625059 203.71941882 -122.94395154 201.84439889 -121.0625 200 C-120.06089844 199.01 -120.06089844 199.01 -119.0390625 198 C-117.6796875 196.66666667 -116.3203125 195.33333333 -114.9609375 194 C-111.68299366 190.76002463 -108.50864439 187.49302931 -105.5 184 C-101.24967188 179.06537869 -96.60741662 174.55746611 -91.9609375 170 C-88.68299366 166.76002463 -85.50864439 163.49302931 -82.5 160 C-78.24967188 155.06537869 -73.60741662 150.55746611 -68.9609375 146 C-65.04013229 142.12460953 -61.34324905 138.14503915 -57.74609375 133.96875 C-54.22909547 130.00327543 -50.39038303 126.35140606 -46.60546875 122.64453125 C-43.45556225 119.53375402 -40.4211404 116.38640621 -37.53125 113.03125 C-33.26860087 108.08772778 -28.61799832 103.5678451 -23.9609375 99 C-19.95269811 95.03818809 -16.16535251 90.98338945 -12.54296875 86.6640625 C-9.35782787 83.22894853 -6.88068496 82.76282097 -2.34179688 82.56640625 C-1.63087891 82.54449219 -0.91996094 82.52257812 -0.1875 82.5 C8.56272337 82.25808944 8.56272337 82.25808944 16.1328125 78.25 C22.13946176 71.46601966 27.05568871 64.15547393 31.9765625 56.5625 C33.90188652 53.60925929 35.89491934 50.7477549 38.0234375 47.9375 C38.49402588 47.31198242 38.96461426 46.68646484 39.44946289 46.04199219 C40.33283312 44.88062061 41.22976685 43.72939315 42.14233398 42.59082031 C44.26780471 39.77663252 45.01011348 38.3236314 44.8984375 34.75 C43.70798126 31.10616872 42.23073699 30.01023635 39 28 C27.04155098 23.33737892 14.52654158 25.44826732 5 34 Z M-262 292 C-266.31773547 298.54700107 -268.64049173 304.05790254 -268 312 C-265.81984504 320.51232479 -261.31849675 326.74666422 -253.796875 331.34765625 C-246.46486281 334.92393492 -239.17099597 335.86945095 -231.26171875 333.78515625 C-222.3627714 330.69588437 -216.73036092 325.82363763 -212.125 317.6875 C-209.8378045 310.19058143 -210.32675701 303.95042588 -213.8828125 296.9609375 C-217.91712066 289.87973925 -224.28364682 285.57211773 -232 283 C-243.57501908 282.08182553 -253.65978435 283.27186734 -262 292 Z " fill="#000000" transform="translate(435,10)"/>
<path d="M0 0 C0.91265625 -0.03738281 1.8253125 -0.07476562 2.765625 -0.11328125 C9.32172297 0.82207828 13.94257024 5.10308425 18.625 9.5 C19.1396582 9.98049805 19.65431641 10.46099609 20.18457031 10.95605469 C24.10913547 14.64188156 27.90771668 18.44746977 31.6875 22.28125 C33.56627727 24.13156094 35.49168618 25.85543325 37.5 27.5625 C41.27732486 30.79589008 44.75681627 34.27951358 48.25 37.8125 C51.64005064 41.24095937 55.00194084 44.63510806 58.6875 47.75 C62.6091293 51.1162054 66.35084089 54.65552631 70.0625 58.25 C70.67407959 58.82355225 71.28565918 59.39710449 71.91577148 59.98803711 C76.4197746 64.40707082 79.49314367 68.88249577 79.87255859 75.42626953 C79.6895348 81.17440708 76.84137575 85.44384027 72.75 89.3125 C67.43188747 92.92496789 62.27066508 95.39927751 55.75 94.3125 C47.32583915 91.1558167 41.85443809 84.83335452 35.75 78.5 C33.6710102 76.36422298 31.58641859 74.23398704 29.5 72.10546875 C28.74231071 71.33012032 28.74231071 71.33012032 27.96931458 70.53910828 C24.73424335 67.24881506 21.38438409 64.19254143 17.87255859 61.20581055 C12.88157528 56.75388099 8.26032066 51.88285671 3.5625 47.125 C1.44697823 44.98271157 -0.67196304 42.8438888 -2.79296875 40.70703125 C-3.50407051 39.98348198 -3.50407051 39.98348198 -4.22953796 39.24531555 C-7.08356535 36.37053643 -10.06965254 33.81637415 -13.25 31.3125 C-17.09568081 27.02469103 -19.63680555 22.9739971 -19.875 17.125 C-19.55460981 12.52562081 -18.39937944 9.78489272 -15.25 6.3125 C-10.37671227 2.23665936 -6.46547162 0.17156978 0 0 Z M-2.25 16.3125 C-0.68030716 20.16538243 1.80078154 22.42774106 4.75 25.3125 C6.56941061 27.14283145 8.38839685 28.9735848 10.20703125 30.8046875 C11.7848401 32.38988211 13.36313633 33.97458966 14.94165039 35.55908203 C16.01775379 36.64021017 17.09295744 37.72223467 18.16723633 38.80517578 C23.54927749 44.22929637 28.937529 49.56598087 34.75463867 54.52880859 C39.99533144 59.21356344 44.79399475 64.40753247 49.6796875 69.45703125 C50.53304687 70.32457031 51.38640625 71.19210937 52.265625 72.0859375 C53.03165039 72.87403809 53.79767578 73.66213867 54.58691406 74.47412109 C56.73914412 76.30327373 57.99031651 76.93404255 60.75 77.3125 C61.41 76.3225 62.07 75.3325 62.75 74.3125 C62.29262451 73.88541748 61.83524902 73.45833496 61.36401367 73.01831055 C53.14358447 65.33415323 44.99169738 57.61781594 37.08203125 49.61328125 C35.07092864 47.62912809 33.0252399 45.76720725 30.875 43.9375 C26.52235675 40.22969279 22.56420998 36.15326051 18.54760742 32.09057617 C14.93667728 28.45428763 11.24507961 24.9840608 7.32421875 21.6796875 C5.75 20.3125 5.75 20.3125 3.5 17.875 C1.64371498 15.86848949 1.64371498 15.86848949 -2.25 16.3125 Z " fill="#000000" transform="translate(91.25,347.6875)"/>
</svg>
