<?xml version="1.0" encoding="UTF-8"?>
<svg version="1.1" xmlns="http://www.w3.org/2000/svg" width="512" height="512">
<path d="M0 0 C1.13115234 -0.02900391 2.26230469 -0.05800781 3.42773438 -0.08789062 C22.40201541 -0.22685719 39.98908344 7.55823374 57.58033371 13.88976288 C60.33687585 14.88098189 63.09506969 15.86756065 65.85324192 16.85423279 C72.06607538 19.0768476 78.27625747 21.30672966 84.484375 23.54248047 C90.2866374 25.63198051 96.09423914 27.70606116 101.90538025 29.77073669 C105.63426334 31.09772406 109.35949358 32.43470669 113.08352661 33.77523804 C114.74568451 34.37186967 116.40911376 34.96497428 118.07394409 35.55410767 C141.89633923 43.99858241 163.66087424 56.48119495 176.1875 79.3125 C176.71988281 80.25738281 177.25226563 81.20226562 177.80078125 82.17578125 C188.84202841 102.86099615 190.67697549 128.07401487 184.14208984 150.48681641 C182.9932469 154.16429386 181.67797401 157.76043576 180.1875 161.3125 C173.72389224 160.71592868 168.03900609 158.66434094 161.96484375 156.4453125 C160.87830002 156.05421799 159.79175629 155.66312347 158.67228699 155.26017761 C156.35262343 154.42404131 154.03409429 153.58475223 151.71661377 152.74258423 C148.1120599 151.43279796 144.50442155 150.13184187 140.89599609 148.83276367 C130.66454222 145.14369986 120.44327494 141.43029975 110.26171875 137.60546875 C109.20279671 137.20944458 109.20279671 137.20944458 108.1224823 136.80541992 C105.00254765 135.63834912 101.88822589 134.46103925 98.78100586 133.26025391 C93.35340067 131.21566748 89.00472239 129.74072173 83.1875 130.3125 C83.1875 131.9625 83.1875 133.6125 83.1875 135.3125 C100.67298809 141.95017439 118.24950168 148.30734413 135.875 154.5625 C139.57484647 155.8760607 143.27445225 157.19028073 146.9733429 158.50653076 C149.24571559 159.31513095 151.51861105 160.1222644 153.79216003 160.92755127 C161.30566868 163.6007852 168.75630586 166.41856946 176.1875 169.3125 C174.96823223 175.43725278 173.31318269 181.2128592 171.1484375 187.06640625 C170.86271881 187.85272934 170.57700012 188.63905243 170.28262329 189.44920349 C169.38115381 191.92641721 168.47198144 194.40071809 167.5625 196.875 C166.94479778 198.56817168 166.32760564 200.26152955 165.7109375 201.95507812 C164.20900534 206.07639171 162.70016479 210.1951142 161.1875 214.3125 C153.63113199 212.14365516 146.23602296 209.62083946 138.83984375 206.9609375 C137.08553795 206.33344101 137.08553795 206.33344101 135.29579163 205.69326782 C131.57133418 204.36039988 127.84815781 203.02399337 124.125 201.6875 C121.68432692 200.81357268 119.24357232 199.93987299 116.80273438 199.06640625 C115.59992828 198.63563782 114.39712219 198.20486938 113.15786743 197.76104736 C110.74366198 196.89650754 108.32925452 196.03253161 105.91464233 195.16912842 C99.92673259 193.02487774 93.94732359 190.8607714 87.98095703 188.65722656 C86.83712051 188.23744537 85.693284 187.81766418 84.51478577 187.38516235 C82.35528246 186.59170222 80.19809508 185.79190005 78.04368591 184.98471069 C76.60002403 184.45594833 76.60002403 184.45594833 75.12719727 183.91650391 C74.29019791 183.60548737 73.45319855 183.29447083 72.59083557 182.97402954 C70.02104144 182.26668149 67.8400869 182.19114452 65.1875 182.3125 C64.8575 183.9625 64.5275 185.6125 64.1875 187.3125 C78.81700826 193.1332624 93.60657762 198.46730883 108.4375 203.75 C112.98472573 205.37271645 117.53146293 206.99679877 122.078125 208.62109375 C123.17564087 209.0129184 124.27315674 209.40474304 125.40393066 209.80844116 C136.01419722 213.59991736 146.60413267 217.44665304 157.1875 221.3125 C156.59611506 226.82861582 155.20450746 231.6101541 153.28125 236.80078125 C152.85410706 237.97739571 152.85410706 237.97739571 152.41833496 239.17778015 C151.51439323 241.66255174 150.60096027 244.14371412 149.6875 246.625 C149.07362211 248.31032967 148.46033495 249.99587464 147.84765625 251.68164062 C143.39300818 263.90148365 143.39300818 263.90148365 142.1875 266.3125 C134.72033868 264.3871201 127.47346884 262.10953159 120.23046875 259.46875 C119.21626358 259.10272675 118.20205841 258.73670349 117.15711975 258.35958862 C115.00308562 257.58142684 112.84977321 256.80126469 110.69714355 256.01922607 C107.34297583 254.80086763 103.98666825 253.58856707 100.62988281 252.37744141 C90.88346219 248.85654134 81.14577259 245.31504442 71.44140625 241.6796875 C70.73569992 241.41637634 70.02999359 241.15306519 69.30290222 240.8817749 C66.14513722 239.70350966 62.99177945 238.51668639 59.84448242 237.31054688 C58.76658447 236.90642578 57.68868652 236.50230469 56.578125 236.0859375 C55.67094727 235.73966309 54.76376953 235.39338867 53.82910156 235.03662109 C50.85343078 234.22092428 48.2588799 234.18466662 45.1875 234.3125 C45.5175 236.2925 45.8475 238.2725 46.1875 240.3125 C50.36481537 241.82244153 54.54229421 243.33192999 58.71987915 244.84112549 C60.28271822 245.40576964 61.84552336 245.97050773 63.40829468 246.53533936 C74.08928813 250.39558639 84.77481432 254.24296899 95.46484375 258.078125 C98.85707936 259.29604031 102.24925685 260.51411737 105.64141846 261.73223877 C107.87401053 262.5334272 110.10687866 263.33384683 112.34002686 264.13348389 C115.5047222 265.26675307 118.66845925 266.40266192 121.83203125 267.5390625 C122.77545883 267.87609192 123.71888641 268.21312134 124.69090271 268.56036377 C129.60054282 270.3269263 134.41676561 272.19843387 139.1875 274.3125 C136.56087692 282.32611817 133.88844929 290.32364155 131.1875 298.3125 C130.8570166 299.29766602 130.5265332 300.28283203 130.18603516 301.29785156 C129.2877605 303.95518959 128.3670058 306.603451 127.4375 309.25 C127.1686499 310.05348877 126.8997998 310.85697754 126.62280273 311.68481445 C125.828125 313.90234375 125.828125 313.90234375 124.1875 317.3125 C120.79901313 318.84749866 118.50544563 318.00901871 115.11645508 316.78051758 C114.10104141 316.41838165 113.08562775 316.05624573 112.03944397 315.68313599 C110.93974777 315.27852142 109.84005157 314.87390686 108.70703125 314.45703125 C107.5575853 314.04355438 106.40813934 313.63007751 105.22386169 313.20407104 C102.75764576 312.315136 100.29321978 311.42244235 97.83093262 310.52279663 C94.00236022 309.12403391 90.16808788 307.74139559 86.33300781 306.3605957 C75.29596265 302.38171334 64.27601833 298.35727322 53.27734375 294.2734375 C51.73529999 293.70328851 50.19322789 293.13321618 48.65112305 292.56323242 C45.90635294 291.54834402 43.16802067 290.51826136 40.43286133 289.4777832 C38.64851685 288.8139563 38.64851685 288.8139563 36.828125 288.13671875 C35.82297852 287.75604248 34.81783203 287.37536621 33.78222656 286.9831543 C31.0636441 286.28048719 29.72617361 286.12254206 27.1875 287.3125 C26.8575 288.3025 26.5275 289.2925 26.1875 290.3125 C28.41772809 292.82827813 30.30998601 293.95153165 33.46728516 295.06738281 C34.77209839 295.53575058 34.77209839 295.53575058 36.10327148 296.01358032 C37.05145752 296.34425507 37.99964355 296.67492981 38.9765625 297.015625 C39.97228271 297.37071136 40.96800293 297.72579773 41.99389648 298.09164429 C45.2641114 299.25621791 48.53828981 300.4092126 51.8125 301.5625 C55.20592671 302.7682952 58.59825831 303.97713778 61.99057007 305.18606567 C64.29883269 306.00840301 66.60745033 306.82974448 68.91641235 307.65011597 C80.24088195 311.67589694 91.53001416 315.79578602 102.8125 319.9375 C104.58933016 320.58893621 106.36618489 321.24030543 108.14306641 321.89160156 C112.15841485 323.36377435 116.17316584 324.83756381 120.1875 326.3125 C116.89991723 344.63608444 103.31588629 361.93873286 88.6875 372.8125 C72.37522396 383.76252247 53.03268791 391.29538233 33.12890625 390.0703125 C28.1293391 390.37752079 25.82932349 391.97811366 21.9375 394.9375 C20.53141595 395.95465653 19.12515771 396.97157229 17.71875 397.98828125 C16.98269531 398.53049316 16.24664062 399.07270508 15.48828125 399.63134766 C11.51959736 402.53121579 7.4721631 405.31808964 3.4375 408.125 C1.74293229 409.31170461 0.0489273 410.49921314 -1.64453125 411.6875 C-10.81622137 418.12108639 -10.81622137 418.12108639 -14.68139648 420.8215332 C-16.38086757 422.01476511 -18.07452354 423.21632658 -19.76196289 424.42651367 C-23.92725979 427.39791709 -27.99889911 430.11381638 -32.63574219 432.29418945 C-35.52675852 434.06718965 -37.56864443 435.73696515 -39.8125 438.3125 C-40.37910721 441.35791737 -40.60572637 443.80039328 -40.609375 446.8515625 C-40.63124374 447.7148114 -40.65311249 448.5780603 -40.67564392 449.46746826 C-40.72043687 451.37917838 -40.75300885 453.2912025 -40.77523804 455.20330811 C-40.8144106 458.47192296 -40.88815596 461.73848411 -40.96801758 465.00634766 C-41.13597293 472.19141356 -41.25754412 479.37639537 -41.375 486.5625 C-41.519375 495.06 -41.66375 503.5575 -41.8125 512.3125 C-62.2725 512.3125 -82.7325 512.3125 -103.8125 512.3125 C-103.77938721 504.72580322 -103.77938721 504.72580322 -103.74560547 496.98583984 C-103.68001799 480.29381073 -103.66870626 463.60207303 -103.68552971 446.90993309 C-103.69440185 436.78718767 -103.68460177 426.66510308 -103.63085938 416.54248047 C-103.58406493 407.71961516 -103.57228939 398.8975173 -103.6025821 390.07456744 C-103.61739994 385.40242566 -103.6146709 380.73177861 -103.57000351 376.05979538 C-103.5285033 371.66120793 -103.53386115 367.26515531 -103.57502174 362.86658859 C-103.58188508 361.25330586 -103.57168752 359.63984556 -103.54306984 358.02680206 C-103.46497963 353.31623846 -103.50193256 348.87990759 -104.8125 344.3125 C-107.79950825 341.26341606 -110.88223019 339.84999413 -114.8125 338.3125 C-133.60963491 325.08668085 -146.11267743 304.95285165 -150.35229492 282.44702148 C-152.87717173 265.2497306 -151.36013451 247.41090959 -144.8125 231.3125 C-128.55439477 236.60398093 -112.48855963 242.36365631 -96.4375 248.25 C-88.34778068 251.2134447 -80.25553475 254.16957808 -72.15441895 257.10174561 C-69.91245924 257.91399229 -67.6715015 258.72900956 -65.43151855 259.54669189 C-62.23683251 260.71010618 -59.03728721 261.85897699 -55.8359375 263.00390625 C-54.87893951 263.35509018 -53.92194153 263.70627411 -52.9359436 264.06809998 C-51.6129274 264.53627892 -51.6129274 264.53627892 -50.26318359 265.01391602 C-49.49638275 265.29026382 -48.72958191 265.56661163 -47.93954468 265.85133362 C-45.54136665 266.37128466 -44.11495707 266.0896369 -41.8125 265.3125 C-41.8125 263.6625 -41.8125 262.0125 -41.8125 260.3125 C-66.14246186 251.43231467 -90.49321487 242.61198549 -114.875 233.875 C-116.05186371 233.45318451 -117.22872742 233.03136902 -118.44125366 232.59677124 C-121.78485719 231.39859766 -125.12868828 230.20106231 -128.47265625 229.00390625 C-129.47694672 228.64420746 -130.48123718 228.28450867 -131.51596069 227.91390991 C-132.43632111 227.58468536 -133.35668152 227.25546082 -134.30493164 226.91625977 C-135.1070961 226.6292067 -135.90926056 226.34215363 -136.73573303 226.04640198 C-138.42178306 225.4505742 -140.1160337 224.87798877 -141.8125 224.3125 C-139.48153331 215.90759685 -136.51280632 207.75201877 -133.51416016 199.56884766 C-132.67945115 197.29053088 -131.84917068 195.01063591 -131.01953125 192.73046875 C-130.48983718 191.2785532 -129.95989836 189.82672691 -129.4296875 188.375 C-129.05781815 187.3547876 -129.05781815 187.3547876 -128.67843628 186.31396484 C-126.92905888 181.54561776 -126.92905888 181.54561776 -125.8125 179.3125 C-118.3179436 181.46657729 -110.9785399 183.95909951 -103.640625 186.59375 C-101.91702255 187.20950897 -101.91702255 187.20950897 -100.15859985 187.83770752 C-97.08954251 188.93486945 -94.02133474 190.03436759 -90.95345306 191.1348114 C-88.42117831 192.04233986 -85.88790387 192.94705926 -83.35462761 193.85178757 C-72.10355961 197.87067712 -60.85464398 201.8931764 -49.6640625 206.078125 C-48.95141235 206.34383301 -48.23876221 206.60954102 -47.5045166 206.88330078 C-44.3858569 208.04742165 -41.27244553 209.22198586 -38.16503906 210.41601562 C-37.11799805 210.80982422 -36.07095703 211.20363281 -34.9921875 211.609375 C-34.12319824 211.94291992 -33.25420898 212.27646484 -32.35888672 212.62011719 C-29.42623001 213.41752988 -26.8379321 213.43283282 -23.8125 213.3125 C-23.2590236 211.23696352 -22.8125 209.46884036 -22.8125 207.3125 C-23.39438583 207.14519882 -23.97627167 206.97789764 -24.57579041 206.80552673 C-31.43383866 204.79541132 -38.15440581 202.48220282 -44.87890625 200.06640625 C-46.59054459 199.45495255 -46.59054459 199.45495255 -48.33676147 198.83114624 C-52.01724002 197.51538538 -55.69627731 196.19566148 -59.375 194.875 C-60.63565729 194.42274219 -61.89632831 193.97052265 -63.15701294 193.51834106 C-68.18998808 191.7129488 -73.22281267 189.90714423 -78.25468445 188.09867859 C-84.59603636 185.82043316 -90.94104838 183.55370194 -97.29621887 181.31428528 C-100.41745905 180.21359695 -103.53570815 179.10462428 -106.65328979 177.99362183 C-108.04437842 177.50025662 -109.4368936 177.01089434 -110.83084106 176.52566528 C-112.71254223 175.87008396 -114.5889004 175.19922372 -116.46484375 174.52734375 C-117.48570068 174.16761475 -118.50655762 173.80788574 -119.55834961 173.43725586 C-120.30221924 173.06608643 -121.04608887 172.69491699 -121.8125 172.3125 C-122.92910977 168.96267068 -122.74375892 168.39916628 -121.59667969 165.22412109 C-121.30597595 164.40672455 -121.01527222 163.589328 -120.71575928 162.74716187 C-120.39190247 161.86895782 -120.06804565 160.99075378 -119.734375 160.0859375 C-119.4071344 159.18251617 -119.0798938 158.27909485 -118.74273682 157.34829712 C-118.04781492 155.43851013 -117.34811901 153.53045458 -116.64404297 151.62402344 C-115.56616839 148.69746014 -114.51077547 145.76344985 -113.45703125 142.828125 C-112.77999258 140.97606963 -112.10165089 139.12448996 -111.421875 137.2734375 C-111.10611511 136.391185 -110.79035522 135.5089325 -110.46502686 134.59994507 C-110.16171448 133.78885284 -109.8584021 132.97776062 -109.54589844 132.14208984 C-109.28307068 131.42499847 -109.02024292 130.7079071 -108.74945068 129.96908569 C-107.8125 128.3125 -107.8125 128.3125 -104.8125 127.3125 C-102.94573975 127.72323608 -102.94573975 127.72323608 -100.81152344 128.48974609 C-99.59540627 128.91898125 -99.59540627 128.91898125 -98.35472107 129.35688782 C-97.46938187 129.67997421 -96.58404266 130.00306061 -95.671875 130.3359375 C-94.73726944 130.66897385 -93.80266388 131.00201019 -92.83973694 131.34513855 C-89.74419295 132.4507183 -86.6534787 133.56922714 -83.5625 134.6875 C-81.41785895 135.45517622 -79.27291676 136.22201163 -77.12768555 136.98803711 C-66.9589021 140.62593696 -56.8066754 144.3087739 -46.66366577 148.0178833 C-43.40239125 149.21045347 -40.14021919 150.40054162 -36.87792969 151.59033203 C-32.75884352 153.09278886 -28.64435771 154.60704126 -24.53222656 156.12841797 C-22.65311541 156.81641027 -20.7738898 157.50409005 -18.89453125 158.19140625 C-18.0445607 158.5093364 -17.19459015 158.82726654 -16.31886292 159.15483093 C-12.36972093 160.58965883 -9.08657734 161.74395771 -4.8125 161.3125 C-4.2590236 159.23696352 -3.8125 157.46884036 -3.8125 155.3125 C-4.33805984 155.1393074 -4.86361969 154.96611481 -5.40510559 154.78767395 C-11.46376493 152.78083983 -17.49138195 150.69295292 -23.51171875 148.57421875 C-25.03809464 148.03755585 -25.03809464 148.03755585 -26.5953064 147.49005127 C-29.89736179 146.32808886 -33.19878795 145.16435613 -36.5 144 C-37.62445526 143.60354279 -38.74891052 143.20708557 -39.90744019 142.7986145 C-55.26589662 137.37930677 -70.59569008 131.88877273 -85.875 126.25 C-86.68576996 125.95104828 -87.49653992 125.65209656 -88.33187866 125.34408569 C-90.58786309 124.51127996 -92.84301555 123.67627973 -95.09765625 122.83984375 C-95.7566391 122.59590881 -96.41562195 122.35197388 -97.09457397 122.10064697 C-99.38334539 121.24786539 -101.62608779 120.40570611 -103.8125 119.3125 C-103.04794589 114.41848982 -101.3388293 109.92701731 -99.65234375 105.29296875 C-99.34301407 104.43439774 -99.03368439 103.57582672 -98.71498108 102.6912384 C-97.72996353 99.95961744 -96.74005393 97.22979909 -95.75 94.5 C-95.07975426 92.64399713 -94.40982873 90.7878786 -93.74023438 88.93164062 C-92.10136355 84.39057845 -90.45810415 79.85112625 -88.8125 75.3125 C-82.71160455 75.91016844 -77.40204772 77.70495564 -71.66796875 79.8203125 C-70.68086914 80.17822876 -69.69376953 80.53614502 -68.67675781 80.90490723 C-66.5531557 81.67577893 -64.43065973 82.44970338 -62.30917358 83.22637939 C-58.9738569 84.44706808 -55.63549972 85.65906426 -52.29614258 86.86865234 C-45.46602264 89.34379303 -38.63918262 91.8278981 -31.8125 94.3125 C-24.79121887 96.86723632 -17.76782078 99.41582492 -10.73843384 101.94818115 C-8.04035358 102.92292139 -5.34575771 103.90689578 -2.65112305 104.89111328 C-1.01109083 105.482612 0.62911711 106.07362382 2.26953125 106.6640625 C3.00373291 106.93504761 3.73793457 107.20603271 4.49438477 107.48522949 C8.17278297 108.79717121 11.27071309 109.6358388 15.1875 109.3125 C14.8575 107.3325 14.5275 105.3525 14.1875 103.3125 C7.95921636 101.03924066 1.72993397 98.76873265 -4.5 96.5 C-5.4570282 96.15145966 -6.4140564 95.80291931 -7.40008545 95.44381714 C-26.91411013 88.34038303 -46.46103973 81.32982372 -66.01831055 74.34643555 C-67.12481461 73.95082428 -68.23131866 73.55521301 -69.37135315 73.14761353 C-71.45693552 72.40196612 -73.54288633 71.6573482 -75.6292572 70.91390991 C-76.54969315 70.58468536 -77.47012909 70.25546082 -78.41845703 69.91625977 C-79.2228421 69.6292067 -80.02722717 69.34215363 -80.85598755 69.04640198 C-82.8125 68.3125 -82.8125 68.3125 -84.8125 67.3125 C-83.66319821 61.17694168 -81.99732064 55.69677652 -79.3125 50.0625 C-78.79236328 48.96723999 -78.79236328 48.96723999 -78.26171875 47.84985352 C-67.7410867 26.56462599 -49.14832336 11.97311224 -27.0703125 3.953125 C-17.82911534 1.06132181 -9.66400391 0.07960465 0 0 Z M-54.6328125 44.65625 C-57.20929182 47.79604559 -59.1849103 50.59229498 -60.8125 54.3125 C-60.4825 55.3025 -60.1525 56.2925 -59.8125 57.3125 C-57.53475123 58.5077067 -57.53475123 58.5077067 -54.66381836 59.43798828 C-53.00829201 60.02472824 -53.00829201 60.02472824 -51.31932068 60.62332153 C-50.10921829 61.03895355 -48.89911591 61.45458557 -47.65234375 61.8828125 C-46.3880881 62.32669309 -45.12422396 62.77169021 -43.86073303 63.21774292 C-40.5081991 64.39828637 -37.15104966 65.56510063 -33.79260254 66.72869873 C-30.47459964 67.88007528 -27.16008386 69.04137028 -23.84570312 70.203125 C-22.87465858 70.54345072 -22.87465858 70.54345072 -21.88399696 70.8906517 C-19.93164934 71.57516908 -17.97945923 72.26013338 -16.02734375 72.9453125 C-15.38431683 73.17096138 -14.7412899 73.39661026 -14.07877731 73.62909698 C-5.09793521 76.78268159 3.87377667 79.9600379 12.80859375 83.2421875 C13.79207291 83.59596466 14.77555206 83.94974182 15.78883362 84.3142395 C21.86783167 86.57328625 27.37751445 88.84346097 30.4375 94.9375 C33.41712731 101.53175717 34.08568882 107.67804416 31.6875 114.5625 C28.97546446 120.5102745 25.148727 123.896261 19.3125 126.6875 C11.50800039 128.24839992 5.12362991 127.0553084 -2.2734375 124.38671875 C-3.17081635 124.07522385 -4.06819519 123.76372894 -4.99276733 123.4427948 C-7.93836369 122.41477956 -10.8756446 121.36520628 -13.8125 120.3125 C-15.88175492 119.57871031 -17.95109226 118.84515298 -20.02050781 118.11181641 C-26.50125927 115.80604124 -32.96979076 113.46705535 -39.4375 111.125 C-41.65746833 110.32333574 -43.87752011 109.52190254 -46.09765625 108.72070312 C-50.16798443 107.25114568 -54.23796356 105.78063575 -58.30712891 104.30786133 C-59.21037903 103.98210114 -60.11362915 103.65634094 -61.04425049 103.32070923 C-62.98457732 102.61403326 -64.92075056 101.89589681 -66.85369873 101.16928101 C-67.8357428 100.80235138 -68.81778687 100.43542175 -69.82958984 100.05737305 C-70.7139975 99.722957 -71.59840515 99.38854095 -72.50961304 99.04399109 C-74.88632541 98.16113226 -74.88632541 98.16113226 -77.8125 98.3125 C-78.8025 101.6125 -79.7925 104.9125 -80.8125 108.3125 C-66.93541546 113.84055577 -52.90992999 118.87751786 -38.8125 123.8125 C-15.46906788 131.98416112 -15.46906788 131.98416112 -4.6875 136.09375 C-3.97158691 136.36135132 -3.25567383 136.62895264 -2.51806641 136.90466309 C5.01526352 139.82294328 9.66126706 142.99883168 13.1875 150.3125 C15.48688449 156.25257659 14.57497732 162.77401198 12.15625 168.49609375 C9.17412566 174.0875769 4.04940152 177.35592967 -1.8125 179.3125 C-10.12434456 180.34149745 -17.02320568 178.35963496 -24.75 175.5 C-25.93062012 175.08000732 -27.11124023 174.66001465 -28.32763672 174.22729492 C-36.12085081 171.44740068 -43.87308146 168.55337977 -51.63471985 165.68687439 C-55.18225686 164.377539 -58.73084394 163.07108014 -62.27954102 161.76489258 C-67.03372141 160.01483258 -71.78193649 158.24969117 -76.52709961 156.4753418 C-78.7392958 155.65640115 -80.95161155 154.83778338 -83.1640625 154.01953125 C-84.19407883 153.63044586 -85.22409515 153.24136047 -86.2853241 152.84048462 C-87.23353531 152.49198456 -88.18174652 152.1434845 -89.15869141 151.78442383 C-89.98833405 151.47483231 -90.81797668 151.16524078 -91.67276001 150.8462677 C-93.97518533 150.068705 -93.97518533 150.068705 -96.8125 151.3125 C-97.83531518 153.40969872 -97.83531518 153.40969872 -98.5 155.875 C-98.9375 157.35416667 -99.375 158.83333333 -99.8125 160.3125 C-91.39856053 163.92501279 -82.90022018 167.15153501 -74.26171875 170.18359375 C-72.99187514 170.63251913 -71.72216887 171.0818332 -70.45259094 171.5315094 C-66.46970007 172.94138532 -62.48497456 174.34602637 -58.5 175.75 C-10.95047033 192.50513537 -10.95047033 192.50513537 -8.75 196 C-8.440625 196.763125 -8.13125 197.52625 -7.8125 198.3125 C-7.27625 199.323125 -6.74 200.33375 -6.1875 201.375 C-3.89578762 206.85160497 -3.80694706 212.95497579 -5.50390625 218.62109375 C-8.00208172 224.15052817 -11.55712881 227.79065688 -17.03515625 230.3515625 C-27.80143717 234.27588043 -38.10858889 229.7745137 -48.36328125 226.0234375 C-49.53851852 225.60131989 -50.7137558 225.17920227 -51.92460632 224.74429321 C-55.03366635 223.62578669 -58.13991521 222.49990361 -61.24493408 221.37023926 C-64.3309181 220.24957513 -67.42053862 219.1390308 -70.50976562 218.02734375 C-77.61496788 215.46750265 -84.71451375 212.89227211 -91.8125 210.3125 C-92.9338031 209.90519653 -94.0551062 209.49789307 -95.21038818 209.07824707 C-101.41198114 206.82543802 -107.61279891 204.57051027 -113.8125 202.3125 C-116.77302484 205.67673277 -117.73539822 209.00409287 -118.8125 213.3125 C-117.92208008 213.62251953 -117.03166016 213.93253906 -116.11425781 214.25195312 C-97.64092995 220.68970546 -79.19830371 227.21029315 -60.80578613 233.87573242 C-58.85839849 234.5812336 -56.91056539 235.28550645 -54.96228027 235.98852539 C-52.21434233 236.98073496 -49.46825272 237.97789476 -46.72265625 238.9765625 C-45.90851761 239.26983429 -45.09437897 239.56310608 -44.25556946 239.86526489 C-39.95002984 241.43874966 -35.89545298 243.21096337 -31.8125 245.3125 C-30.8225 245.6425 -29.8325 245.9725 -28.8125 246.3125 C-27.8125 247.9375 -27.8125 247.9375 -26.8125 250.3125 C-26.27625 251.3025 -25.74 252.2925 -25.1875 253.3125 C-22.77583023 259.06340485 -22.82133627 265.72543127 -24.46875 271.6875 C-26.68394813 276.7289854 -29.95963659 279.78901103 -34.8125 282.3125 C-43.29947044 285.49511392 -49.90555533 284.30141188 -58.1484375 281.38671875 C-59.05483978 281.07522385 -59.96124207 280.76372894 -60.89511108 280.4427948 C-63.87271762 279.4134701 -66.84322323 278.36559954 -69.8125 277.3125 C-70.83089966 276.95238831 -71.84929932 276.59227661 -72.89855957 276.22125244 C-80.42298221 273.55399884 -87.93132674 270.84309888 -95.4375 268.125 C-97.65746833 267.32333574 -99.87752011 266.52190254 -102.09765625 265.72070312 C-106.16798443 264.25114568 -110.23796356 262.78063575 -114.30712891 261.30786133 C-115.6600705 260.81922104 -115.6600705 260.81922104 -117.04034424 260.32070923 C-118.99247081 259.61073757 -120.94173145 258.8928609 -122.88885498 258.16928101 C-123.87992249 257.80235138 -124.87098999 257.43542175 -125.89208984 257.05737305 C-126.78809906 256.722957 -127.68410828 256.38854095 -128.60726929 256.04399109 C-130.74165079 255.20755386 -130.74165079 255.20755386 -132.8125 255.3125 C-135.54007146 275.10582264 -130.43244038 293.95488675 -118.59716797 309.95556641 C-109.91405327 320.97216281 -99.06500359 327.8581139 -86.12890625 332.9375 C-85.27539581 333.27545593 -84.42188538 333.61341187 -83.54251099 333.96160889 C-71.8356462 338.54330436 -59.9702938 342.69895861 -48.11655426 346.88158798 C-44.84380899 348.03679218 -41.5721136 349.19496335 -38.30029297 350.3527832 C-34.39783832 351.73365824 -30.49525892 353.11417284 -26.59194946 354.49263 C-19.3363976 357.05694652 -12.09193897 359.64895814 -4.859375 362.27734375 C-2.57674195 363.10196506 -0.29374991 363.92558166 1.98944092 364.74865723 C3.34351815 365.23941803 4.69617433 365.73412256 6.04718018 366.23327637 C27.07499131 373.99799258 47.01713727 374.07860046 67.50390625 364.8125 C77.98135788 359.12981437 91.29126842 349.00119475 95.1875 337.3125 C88.15782358 334.03383291 80.97448367 331.37110796 73.65847778 328.81346512 C71.57849401 328.08528116 69.50076662 327.35097165 67.42358398 326.61483765 C61.52428539 324.52451316 55.62344771 322.43875492 49.71582031 320.37207031 C46.08354207 319.10088207 42.45580002 317.81741493 38.83059692 316.52619553 C37.46085758 316.04091167 36.0895248 315.56009841 34.71652222 315.08412552 C15.19102961 308.31032698 15.19102961 308.31032698 10.6875 300.5 C7.80231775 293.50642459 7.49415615 287.39055899 10.25 280.31640625 C13.08501173 274.25656867 17.080306 271.54454835 23.1875 269.3125 C31.23539367 267.41856236 37.45064873 269.16787692 45.0625 271.9375 C46.20291748 272.33485352 47.34333496 272.73220703 48.51831055 273.14160156 C51.71162728 274.26143799 54.89669034 275.40041262 58.07891846 276.55114746 C60.29445454 277.35111843 62.51196378 278.14541056 64.72998047 278.93847656 C71.73607875 281.44460263 78.73795933 283.96190197 85.72943115 286.50857544 C87.15826213 287.02880397 88.58749453 287.54793147 90.01715088 288.06588745 C93.44169502 289.30711067 96.85948734 290.56254196 100.26708984 291.84960938 C101.23155281 292.20832123 101.23155281 292.20832123 102.21549988 292.57427979 C103.9579477 293.22237831 105.69723519 293.87895574 107.4362793 294.53613281 C110.24274261 295.60630212 110.24274261 295.60630212 113.1875 294.3125 C114.21031518 292.21530128 114.21031518 292.21530128 114.875 289.75 C115.12636719 288.92371094 115.37773437 288.09742188 115.63671875 287.24609375 C115.81847656 286.60800781 116.00023437 285.96992188 116.1875 285.3125 C103.68704998 280.55465495 91.15543972 275.90834582 78.53125 271.48828125 C76.23044944 270.67909137 73.92966826 269.86984637 71.62890625 269.06054688 C68.12717162 267.82957264 64.62413974 266.60305827 61.11669922 265.38842773 C57.64603572 264.18462617 54.18205818 262.96305717 50.71875 261.73828125 C49.15465393 261.20368034 49.15465393 261.20368034 47.55895996 260.65827942 C40.55351799 258.15769433 33.77268332 255.20246924 29.53125 248.8203125 C26.86603709 241.29355381 25.8462238 234.87572053 29.01171875 227.26953125 C31.86530451 222.51987522 36.20996291 219.28023092 41.125 216.875 C48.83867195 215.45820311 55.15127771 216.52950048 62.45703125 219.16015625 C63.79336357 219.62338036 63.79336357 219.62338036 65.1566925 220.09596252 C68.17379612 221.14981074 71.18118695 222.22826642 74.1875 223.3125 C75.29188416 223.70910828 76.39626831 224.10571655 77.53411865 224.51434326 C86.6294781 227.78798257 95.70480721 231.11567154 104.77832031 234.44927979 C109.08401144 236.03088095 113.39141312 237.60775843 117.69921875 239.18359375 C118.8260759 239.59910995 119.95293304 240.01462616 121.11393738 240.44273376 C122.14714615 240.82055496 123.18035492 241.19837616 124.24487305 241.58764648 C125.15416061 241.9218309 126.06344818 242.25601532 127.00028992 242.60032654 C129.12108222 243.41570302 129.12108222 243.41570302 131.1875 243.3125 C131.69365298 242.04410474 132.19219099 240.77266898 132.6875 239.5 C132.9659375 238.79230469 133.244375 238.08460938 133.53125 237.35546875 C134.3404162 235.19408784 134.3404162 235.19408784 134.1875 232.3125 C133.44406845 232.05020599 132.7006369 231.78791199 131.93467712 231.51766968 C124.85977846 229.02090852 117.78596576 226.52110342 110.71329403 224.01804161 C107.07888468 222.7319177 103.44409518 221.44689295 99.80834961 220.16455078 C96.28657593 218.92235822 92.76591507 217.67705598 89.24594307 216.42976761 C87.91621065 215.95915955 86.58610898 215.48959322 85.25559807 215.02119064 C51.93034525 203.28526299 51.93034525 203.28526299 47.75 195.125 C45.38628185 189.00174737 45.01580032 182.66797543 47.4375 176.5 C50.90720353 170.18018285 54.29310974 166.53329244 61.1875 164.3125 C70.26371956 163.22641305 77.75546221 165.35322893 86.1875 168.5 C88.06819956 169.17472929 89.94889929 169.84945808 91.8296051 170.52416992 C93.8498956 171.25318488 95.86650671 171.99162194 97.88232422 172.73291016 C102.46778107 174.4187107 107.06337221 176.07584825 111.66015625 177.73046875 C116.37672285 179.428672 121.09264381 181.1283846 125.80273438 182.84448242 C133.89296862 185.78946473 141.99828619 188.65073461 150.1875 191.3125 C150.41759766 190.72766846 150.64769531 190.14283691 150.88476562 189.5402832 C151.43359375 188.14534505 151.98242188 186.7504069 152.53125 185.35546875 C153.3404162 183.19408784 153.3404162 183.19408784 153.1875 180.3125 C152.6210527 180.10920074 152.05460541 179.90590149 151.47099304 179.69644165 C138.53331573 175.05242053 125.59900836 170.39917625 112.66981506 165.73158264 C107.1560859 163.74152598 101.64056801 161.75689719 96.11936951 159.78765869 C93.07659251 158.70003716 90.03858312 157.59927358 87 156.5 C85.96641357 156.13535645 84.93282715 155.77071289 83.86791992 155.39501953 C77.41573838 153.0402249 70.03296447 150.27215608 66.75 143.75 C64.16219319 137.82381039 64.07274772 131.11393054 65.8828125 124.94140625 C68.64995263 118.79091411 73.10387333 114.95724979 79.3125 112.375 C89.20188665 109.58612499 99.88822783 114.31368328 109.1171875 117.70703125 C110.30998322 118.13626389 111.50277893 118.56549652 112.73171997 119.00773621 C115.87553696 120.14107238 119.01591679 121.28304731 122.15490723 122.42962646 C125.3128836 123.58080151 128.47493558 124.72065976 131.63671875 125.86132812 C136.30926244 127.54863663 140.97967731 129.24158493 145.64794922 130.94067383 C147.82779662 131.73129044 150.00764699 132.52189886 152.1875 133.3125 C152.81488319 133.54152889 153.44226639 133.77055779 154.08866119 134.00652695 C156.02043713 134.71136371 157.95367751 135.41205078 159.88720703 136.11206055 C161.04431183 136.53287399 162.20141663 136.95368744 163.39358521 137.38725281 C166.01341053 138.41729158 166.01341053 138.41729158 168.1875 138.3125 C171.40113324 127.00360227 170.12836681 112.21714751 166.1875 101.3125 C165.65962891 99.81009766 165.65962891 99.81009766 165.12109375 98.27734375 C162.40909028 91.19749311 158.8520193 85.26935365 154.1875 79.3125 C153.65382813 78.61382812 153.12015625 77.91515625 152.5703125 77.1953125 C142.35216708 64.63041598 127.36180461 58.14594854 112.41796875 52.94921875 C111.31834808 52.55945358 110.21872742 52.16968842 109.08578491 51.76811218 C105.51798063 50.50499077 101.94657112 49.25242605 98.375 48 C93.99168355 46.45255652 89.60958476 44.90167964 85.2275753 43.35054016 C83.31594405 42.67423576 81.40394793 41.99897105 79.49189758 41.32385254 C71.10043817 38.35868142 62.72761361 35.34465286 54.3671875 32.29296875 C53.28869034 31.89979965 52.21019318 31.50663055 51.09901428 31.10154724 C46.98372268 29.60055682 42.86871684 28.09889748 38.75741577 26.58700562 C35.96633146 25.56095053 33.17286168 24.54164325 30.37890625 23.5234375 C29.57504486 23.22539719 28.77118347 22.92735687 27.94296265 22.62028503 C-2.70332023 11.49856188 -33.23320488 20.39002827 -54.6328125 44.65625 Z M-85.8125 358.3125 C-85.8125 372.8325 -85.8125 387.3525 -85.8125 402.3125 C-79.82459561 404.54934616 -73.83553382 406.76673608 -67.82543945 408.94091797 C-65.78387649 409.68545558 -63.74603042 410.44026948 -61.7121582 411.20556641 C-58.78476809 412.30503551 -55.84592178 413.36663923 -52.90234375 414.421875 C-51.99790024 414.77062683 -51.09345673 415.11937866 -50.16160583 415.47869873 C-45.53888244 417.18319438 -45.53888244 417.18319438 -40.78327942 416.70089722 C-38.66100615 415.56846824 -38.66100615 415.56846824 -35.8125 413.3125 C-34.66744995 412.56154053 -34.66744995 412.56154053 -33.49926758 411.79541016 C-32.82532959 411.31894043 -32.1513916 410.8424707 -31.45703125 410.3515625 C-30.67875977 409.80387207 -29.90048828 409.25618164 -29.09863281 408.69189453 C-28.28233398 408.11294434 -27.46603516 407.53399414 -26.625 406.9375 C-24.86595083 405.69782384 -23.10683411 404.45824354 -21.34765625 403.21875 C-20.44418457 402.58066406 -19.54071289 401.94257813 -18.60986328 401.28515625 C-13.93652117 397.98958946 -9.24885421 394.71452293 -4.5625 391.4375 C-2.86972581 390.25269826 -1.17701128 389.06781126 0.515625 387.8828125 C1.73958333 387.02604167 2.96354167 386.16927083 4.1875 385.3125 C0.77358639 383.03655759 -2.6036166 382.0360935 -6.4934082 380.89819336 C-7.66466751 380.54903618 -7.66466751 380.54903618 -8.85958862 380.19282532 C-11.44268143 379.42427226 -14.02789625 378.66314714 -16.61328125 377.90234375 C-18.41076148 377.36985506 -20.20813864 376.83701835 -22.00541687 376.30384827 C-25.77471893 375.18688405 -29.54504489 374.07346647 -33.31616211 372.96264648 C-38.14317919 371.54059986 -42.96788471 370.11089234 -47.79188251 368.67864132 C-51.50488282 367.57697516 -55.21892692 366.47886387 -58.93330956 365.38186836 C-60.71214522 364.85616071 -62.49069371 364.32948031 -64.26894569 363.80180168 C-66.75940917 363.06347937 -69.2512015 362.32982529 -71.7434082 361.59741211 C-72.47453323 361.37973175 -73.20565826 361.16205139 -73.9589386 360.93777466 C-77.93719265 359.77455735 -81.69398337 358.99891944 -85.8125 358.3125 Z M-85.8125 421.3125 C-85.8125 445.7325 -85.8125 470.1525 -85.8125 495.3125 C-77.2325 495.3125 -68.6525 495.3125 -59.8125 495.3125 C-59.12084541 473.63653914 -58.64788577 452.00105747 -58.8125 430.3125 C-62.93564058 428.80735354 -67.06130702 427.30925628 -71.1875 425.8125 C-72.363125 425.38324219 -73.53875 424.95398438 -74.75 424.51171875 C-75.87148437 424.10566406 -76.99296875 423.69960938 -78.1484375 423.28125 C-79.18532715 422.90419922 -80.2222168 422.52714844 -81.29052734 422.13867188 C-83.68696146 421.20872967 -83.68696146 421.20872967 -85.8125 421.3125 Z " fill="#000000" transform="translate(237.8125,-0.3125)"/>
</svg>
