<?xml version="1.0" encoding="UTF-8"?>
<svg version="1.1" xmlns="http://www.w3.org/2000/svg" width="512" height="512">
<path d="M0 0 C1.01790619 0.00215515 2.03581238 0.0043103 3.08456421 0.00653076 C17.69363523 0.05620146 32.02575853 0.30709809 46.375 3.3125 C47.34985352 3.51117676 48.32470703 3.70985352 49.32910156 3.91455078 C98.5477554 14.2102109 141.97749696 36.64668433 178.375 71.3125 C179.273396 72.16787354 179.273396 72.16787354 180.18994141 73.04052734 C188.52743043 81.03806198 196.17259045 89.25204073 203.05566406 98.53564453 C204.41568182 100.36728947 205.79649374 102.18190483 207.1796875 103.99609375 C213.5480373 112.42343333 219.17969786 121.11991515 224.375 130.3125 C224.73803223 130.94285156 225.10106445 131.57320312 225.47509766 132.22265625 C247.08503355 169.97093421 256.85198837 212.73995161 256.6875 255.9375 C256.68534485 256.95540619 256.6831897 257.97331238 256.68096924 259.02206421 C256.63129854 273.63113523 256.38040191 287.96325853 253.375 302.3125 C253.07698486 303.77478027 253.07698486 303.77478027 252.77294922 305.26660156 C242.4772891 354.4852554 220.04081567 397.91499696 185.375 434.3125 C184.51962646 435.210896 184.51962646 435.210896 183.64697266 436.12744141 C175.63721762 444.47767029 167.41180557 452.12460504 158.11230469 459.01513672 C156.39124144 460.30037142 154.698612 461.6167016 153.0078125 462.94140625 C122.05599233 486.84699932 84.66878791 502.15926624 46.375 509.3125 C45.56998047 509.47476074 44.76496094 509.63702148 43.93554688 509.80419922 C13.91376741 515.67407499 -20.78272031 514.62143832 -50.625 508.3125 C-51.66688477 508.09287598 -52.70876953 507.87325195 -53.78222656 507.64697266 C-100.87075182 497.37588803 -142.7980975 474.48243973 -177.625 441.3125 C-178.22393066 440.74225098 -178.82286133 440.17200195 -179.43994141 439.58447266 C-187.78026531 431.58421874 -195.42552136 423.36783043 -202.31005859 414.08056641 C-203.65432 412.27307641 -205.02259127 410.48576388 -206.39453125 408.69921875 C-212.78359319 400.29202986 -218.32581715 391.54888957 -223.48583984 382.33984375 C-224.53265887 380.47683792 -225.60178881 378.62866361 -226.67578125 376.78125 C-247.24290095 340.1808446 -256.09605121 298.32584482 -255.9375 256.6875 C-255.93534485 255.66959381 -255.9331897 254.65168762 -255.93096924 253.60293579 C-255.88129854 238.99386477 -255.63040191 224.66174147 -252.625 210.3125 C-252.42632324 209.33764648 -252.22764648 208.36279297 -252.02294922 207.35839844 C-241.7272891 158.1397446 -219.29081567 114.71000304 -184.625 78.3125 C-184.05475098 77.71356934 -183.48450195 77.11463867 -182.89697266 76.49755859 C-174.89943802 68.16006957 -166.68545927 60.51490955 -157.40185547 53.63183594 C-155.57021053 52.27181818 -153.75559517 50.89100626 -151.94140625 49.5078125 C-143.51406667 43.1394627 -134.81758485 37.50780214 -125.625 32.3125 C-124.99464844 31.94946777 -124.36429688 31.58643555 -123.71484375 31.21240234 C-85.96656579 9.60246645 -43.19754839 -0.16448837 0 0 Z M-39.625 28.3125 C-40.52009277 28.47878906 -41.41518555 28.64507813 -42.33740234 28.81640625 C-79.46402149 35.97015267 -114.22488544 51.46301304 -143.625 75.3125 C-144.21684082 75.79009766 -144.80868164 76.26769531 -145.41845703 76.75976562 C-158.72887206 87.59578513 -171.23033412 99.62743629 -181.625 113.3125 C-182.26598633 114.1468457 -182.26598633 114.1468457 -182.91992188 114.99804688 C-206.71757996 146.08690233 -222.32042142 182.67126936 -228.625 221.3125 C-228.74214355 221.99393066 -228.85928711 222.67536133 -228.97998047 223.37744141 C-232.87498306 246.9152951 -232.00743317 272.93808526 -227.625 296.3125 C-227.37556641 297.65513916 -227.37556641 297.65513916 -227.12109375 299.02490234 C-219.96734733 336.15152149 -204.47448696 370.91238544 -180.625 400.3125 C-180.14740234 400.90434082 -179.66980469 401.49618164 -179.17773438 402.10595703 C-168.3478147 415.40887934 -156.32124479 427.94729534 -142.625 438.3125 C-142.02478027 438.7780127 -141.42456055 439.24352539 -140.80615234 439.72314453 C-109.70000719 463.74821599 -73.29898541 478.86683576 -34.625 485.3125 C-33.93921875 485.43109375 -33.2534375 485.5496875 -32.546875 485.671875 C-9.01377281 489.56317536 17.00608081 488.69390282 40.375 484.3125 C41.27009277 484.14621094 42.16518555 483.97992188 43.08740234 483.80859375 C80.30483081 476.63734973 114.85489597 461.09887649 144.375 437.3125 C144.96974121 436.83345215 145.56448242 436.3544043 146.17724609 435.86083984 C159.47411381 425.03354745 172.01919556 413.00831645 182.375 399.3125 C182.84583008 398.70164551 183.31666016 398.09079102 183.80175781 397.46142578 C207.70631249 366.30416595 223.05555187 330.04486724 229.375 291.3125 C229.49214355 290.63106934 229.60928711 289.94963867 229.72998047 289.24755859 C233.62498306 265.7097049 232.75743317 239.68691474 228.375 216.3125 C228.20871094 215.41740723 228.04242188 214.52231445 227.87109375 213.60009766 C215.97309577 151.85169146 180.1364225 98.77358051 128.375 63.3125 C100.39077238 44.88208623 68.39200446 32.69944797 35.375 27.3125 C34.69356934 27.19535645 34.01213867 27.07821289 33.31005859 26.95751953 C9.7722049 23.06251694 -16.25058526 23.93006683 -39.625 28.3125 Z " fill="#000000" transform="translate(255.625,-0.3125)"/>
<path d="M0 0 C2.36483981 1.303557 4.62117951 2.70775954 6.8828125 4.18286133 C8.54996805 5.20538123 10.2205677 6.22230653 11.89453125 7.23364258 C12.70325684 7.72429199 13.51198242 8.21494141 14.34521484 8.72045898 C19.53199857 11.75281771 25.00958444 13.95687502 30.6328125 16.05786133 C31.28475586 16.30342773 31.93669922 16.54899414 32.60839844 16.80200195 C87.28039308 37.0889328 155.10862519 36.04383046 208.48071289 12.11962891 C214.49171863 9.32858563 220.04710535 6.2126717 225.5703125 2.55786133 C230.30198433 -0.44083569 233.82269714 -2.07147919 239.47265625 -1.52026367 C243.47140892 -0.45007309 244.96356821 0.78803707 247.6328125 4.05786133 C249.56235867 8.48836433 249.86082443 11.95580365 248.8828125 16.68286133 C246.27458048 21.62597354 241.25115582 24.22214778 236.6328125 27.05786133 C235.75625 27.62375977 234.8796875 28.1896582 233.9765625 28.77270508 C212.44728669 42.10755147 187.33014203 48.6896803 162.6328125 53.05786133 C161.72015625 53.22447266 160.8075 53.39108398 159.8671875 53.56274414 C130.00789889 58.77301741 96.43320042 58.4462212 66.6328125 53.05786133 C65.65908691 52.89157227 64.68536133 52.7252832 63.68212891 52.55395508 C36.59626594 47.83957442 3.71431595 38.89016278 -17.3671875 20.05786133 C-19.83494629 15.99800009 -20.68577581 13.06968863 -19.9296875 8.43286133 C-18.88343648 4.76785029 -17.47888157 2.12476447 -14.25097656 -0.13720703 C-9.73788879 -2.06562206 -4.50902437 -1.79458798 0 0 Z " fill="#000000" transform="translate(141.3671875,298.942138671875)"/>
<path d="M0 0 C9.58272673 8.26446803 15.13737735 18.42409928 16.43359375 31.0390625 C16.68945042 36.6572485 15.32778433 40.55341483 11.58984375 44.72265625 C7.90781468 46.56367079 4.31527104 47.03117581 0.21484375 46.91015625 C-4.10094119 45.39163933 -6.38491241 43.75712241 -8.78515625 39.91015625 C-9.59375 36.88671875 -9.59375 36.88671875 -10.22265625 33.53515625 C-11.65273939 26.95972245 -12.73486192 22.87590149 -18.59765625 19.09765625 C-24.63182433 16.84963285 -29.00918873 16.37951306 -34.92578125 18.890625 C-39.18642387 21.2268177 -41.91962044 24.49927073 -43.78515625 28.91015625 C-44.1239634 30.71443877 -44.41290122 32.52856564 -44.66015625 34.34765625 C-45.44004437 38.88188948 -46.22843483 41.75991728 -49.78515625 44.91015625 C-53.64325603 47.33524754 -57.25562409 47.13807183 -61.6328125 46.51171875 C-65.11133387 45.53950044 -66.68472724 43.77437763 -68.78515625 40.91015625 C-72.1099806 34.56276431 -70.87558826 27.45745373 -68.84375 20.84765625 C-64.10112386 8.57630677 -56.41271831 -0.30914713 -44.51171875 -6.21875 C-29.51270297 -12.16663557 -12.76176998 -9.74196704 0 0 Z " fill="#000000" transform="translate(191.78515625,173.08984375)"/>
<path d="M0 0 C8.29959335 7.50645815 13.9123784 17.75476955 15 29 C15.05879316 33.90187949 14.74379611 37.72492096 12.25 42 C9.16649012 44.74089767 7.04599737 45.97018583 2.85546875 46.03125 C-2.18819745 45.69667844 -5.50904368 44.91410254 -9 41 C-10.19434708 38.29700399 -10.86168484 35.72001442 -11.41796875 32.82421875 C-12.41701439 27.74360203 -13.53793304 24.03907813 -17 20 C-21.60489275 17.03240245 -26.5391677 15.26028012 -32.046875 16.4375 C-37.36075272 18.19547458 -41.16544554 20.90252762 -44.078125 25.8203125 C-45.15613328 28.36916258 -45.50265219 30.698084 -45.875 33.4375 C-46.65488812 37.97173323 -47.44327858 40.84976103 -51 44 C-54.88539578 46.44224878 -58.45158472 46.17152601 -62.84765625 45.53515625 C-66.07418539 44.73291579 -67.79824595 43.46863333 -70 41 C-73.08731567 35.38669879 -72.127907 29.0818515 -71 23 C-67.40833472 11.06255648 -60.59142924 1.64120563 -50 -5 C-33.30479808 -13.29716228 -14.67764814 -11.60663253 0 0 Z " fill="#000000" transform="translate(382,174)"/>
</svg>
