<?xml version="1.0" encoding="UTF-8"?>
<svg version="1.1" xmlns="http://www.w3.org/2000/svg" width="512" height="512">
<path d="M0 0 C13.31961895 8.64910322 23.063021 20.90640075 26.8984375 36.46484375 C27.95062371 41.41463629 28.15778053 46.20132323 28.125 51.25 C28.11762817 52.61644653 28.11762817 52.61644653 28.11010742 54.01049805 C27.69558861 78.47561063 19.84296601 103.24377899 5.8125 123.3125 C5.16974121 124.26261963 4.52698242 125.21273926 3.86474609 126.19165039 C-0.90784145 132.85319002 -5.81870374 137.8413257 -12.34765625 142.796875 C-25.49598724 153.12371349 -37.15595824 162.79503515 -39.2671051 180.23190308 C-40.4255085 195.57543754 -39.63800563 211.01240065 -38.1875 226.3125 C-37.55443939 226.30726318 -36.92137878 226.30202637 -36.26913452 226.29663086 C-33.37474579 226.27572295 -30.48037301 226.26279611 -27.5859375 226.25 C-26.09211548 226.23743164 -26.09211548 226.23743164 -24.56811523 226.22460938 C-5.57515614 226.16164059 10.58942997 234.52326293 24.13671875 247.546875 C38.53889957 262.51144997 45.26136804 281.90302801 45.0234375 302.5078125 C43.63548872 327.54229598 35.30064684 350.3073573 18.8125 369.3125 C17.97857128 370.37453276 17.14515927 371.43697167 16.3125 372.5 C2.92828668 387.55723998 -16.65101712 398.62867445 -36.1875 403.3125 C-36.8475 403.3125 -37.5075 403.3125 -38.1875 403.3125 C-38.17702637 404.51148926 -38.16655273 405.71047852 -38.15576172 406.94580078 C-38.11913991 411.45976694 -38.09644849 415.97372041 -38.07763672 420.48779297 C-38.06767408 422.4292218 -38.05409908 424.370636 -38.03662109 426.31201172 C-37.83412079 449.40895821 -39.72417499 470.39412785 -56.4375 488.0625 C-70.89754814 501.74092392 -87.28853736 505.85333134 -106.58203125 505.5859375 C-123.00578704 505.03050494 -137.00404929 497.11833406 -148.1875 485.3125 C-159.784833 471.50175951 -164.35455476 456.01715373 -163.3828125 438.27880859 C-162.63307578 430.73083419 -158.75961183 424.32228862 -153.1875 419.3125 C-144.43437534 412.73015026 -136.02400493 411.36759504 -125.1875 412.3125 C-116.73609492 414.24590363 -110.36255811 418.8687755 -105.359375 425.87109375 C-100.56946539 434.11913904 -99.9362695 441.97191885 -101.1875 451.3125 C-102.03700933 453.75784398 -103.05411288 455.97621135 -104.1875 458.3125 C-95.8659406 457.14327022 -95.8659406 457.14327022 -89.1875 452.3125 C-87.42151486 449.36205485 -86.92631492 447.14885211 -86.86865234 443.72753906 C-86.84878265 442.82690735 -86.82891296 441.92627563 -86.80844116 440.99835205 C-86.79688995 440.03467712 -86.78533875 439.0710022 -86.7734375 438.078125 C-86.75407135 437.08496277 -86.7347052 436.09180054 -86.7147522 435.06854248 C-86.65502678 431.89994871 -86.60859889 428.73131847 -86.5625 425.5625 C-86.52431377 423.41274467 -86.48526166 421.26300454 -86.4453125 419.11328125 C-86.34933109 413.84648915 -86.26426296 408.57960536 -86.1875 403.3125 C-87.32046509 403.06052856 -87.32046509 403.06052856 -88.47631836 402.8034668 C-95.29369679 401.20670451 -101.46541044 399.20121461 -107.75 396.125 C-108.56718506 395.72990234 -109.38437012 395.33480469 -110.22631836 394.92773438 C-116.74834943 391.69292083 -122.60080439 388.00278902 -128.1875 383.3125 C-129.03441406 382.60351562 -129.88132813 381.89453125 -130.75390625 381.1640625 C-153.29056775 361.55200593 -166.96546947 335.23167163 -169.1875 305.3125 C-171.06372845 265.87178282 -157.77960602 227.34333959 -132.1875 197.3125 C-131.46389282 196.45682434 -130.74028564 195.60114868 -129.99475098 194.71954346 C-125.31341345 189.3954448 -120.56841301 184.68901349 -114.98566437 180.30534744 C-100.93918876 169.2569526 -86.79793778 157.75809607 -84.36328125 139.12304688 C-83.17690487 126.78951285 -83.7904077 114.39090325 -84.50592041 102.04705811 C-84.81061293 96.19993181 -84.9290823 90.34928641 -85.05859375 84.49609375 C-85.21024784 77.9038314 -85.37657921 71.31714775 -85.69445801 64.73052979 C-86.94362174 38.31772824 -86.94362174 38.31772824 -81.1875 28.3125 C-78.13056678 26.78403339 -75.55765453 27.08007555 -72.1875 27.3125 C-69.8125 28.375 -69.8125 28.375 -68.1875 30.3125 C-66.87634249 34.71424306 -67.23985731 37.88844527 -68.16748047 42.34472656 C-69.68552601 51.15028883 -69.43564691 59.95421114 -69.3828125 68.859375 C-69.37907473 70.72552335 -69.37623138 72.59167368 -69.37423706 74.45782471 C-69.36666067 79.33050105 -69.34706483 84.20305504 -69.3248291 89.07568359 C-69.30424036 94.06345974 -69.29520769 99.05125596 -69.28515625 104.0390625 C-69.26381234 113.79692827 -69.22975025 123.5547039 -69.1875 133.3125 C-58.55313593 125.00692869 -58.55313593 125.00692869 -53.66950798 112.97966194 C-53.49351668 109.09923615 -53.58623773 105.26214892 -53.7421875 101.3828125 C-53.75606339 99.69566967 -53.76310068 98.00845833 -53.76370239 96.32125854 C-53.78066084 91.91944939 -53.877404 87.52334052 -53.99578857 83.12322998 C-54.17111133 76.0649251 -54.21893006 69.00445661 -54.27405167 61.94439316 C-54.30407796 59.49503512 -54.36610148 57.04820459 -54.43405151 54.59963989 C-54.62346847 45.58948909 -54.14425048 39.52360494 -48.51171875 32.10546875 C-42.44722958 26.15676935 -37.85389424 24.17037541 -29.375 23.8125 C-21.71058226 23.99983433 -16.13632586 25.85832536 -10.34765625 30.921875 C-3.92099822 37.77278673 -2.7331727 44.73336441 -2.8359375 53.90405273 C-3.76894845 82.13087356 -17.06642064 105.65522142 -36.84741211 125.16772461 C-38.08569008 126.40162178 -38.08569008 126.40162178 -39.34898376 127.66044617 C-41.12545194 129.42935859 -42.90422483 131.19595899 -44.68510246 132.96043205 C-47.51166137 135.76123476 -50.3318955 138.56831732 -53.15028381 141.37733459 C-59.64274677 147.84587151 -66.1452532 154.30428058 -72.64794159 160.7625351 C-78.61257336 166.68661168 -84.57495806 172.61290639 -90.52923208 178.54739577 C-93.76748986 181.77422368 -97.01348817 184.99313872 -100.26097107 188.2106781 C-108.35583295 196.25819182 -116.28750479 204.19549309 -123.1875 213.3125 C-123.86961044 214.17532089 -124.55172089 215.03814178 -125.25450134 215.92710876 C-139.73096701 234.38851433 -147.91000077 257.2651254 -151.1875 280.3125 C-151.31769531 281.20839844 -151.44789063 282.10429687 -151.58203125 283.02734375 C-154.80322334 309.52701737 -148.33118603 335.05147677 -131.875 356.0625 C-115.83109881 374.73924651 -94.08436134 387.0943178 -69.32421875 389.18359375 C-68.61910156 389.22613281 -67.91398437 389.26867187 -67.1875 389.3125 C-66.14529297 389.39177734 -66.14529297 389.39177734 -65.08203125 389.47265625 C-42.06828233 390.38369967 -19.93336009 382.06524873 -2.9375 366.75 C-2.25171875 366.08871094 -1.5659375 365.42742187 -0.859375 364.74609375 C0.8125 363.3125 0.8125 363.3125 2.8125 363.3125 C3.06515625 362.74789063 3.3178125 362.18328125 3.578125 361.6015625 C4.98085952 359.00028898 6.66146049 356.94958965 8.5625 354.6875 C21.79953101 338.24873224 30.04045752 315.69470342 27.8125 294.3125 C25.48742236 277.6688192 18.31954192 264.0347726 5.125 253.5 C-7.0659232 244.8533051 -21.3595061 241.14277252 -36.25 242.875 C-54.4287371 246.14676371 -71.04550858 254.85120541 -82.11328125 269.9375 C-90.72845759 282.92483221 -97.52579123 298.38002546 -95.1875 314.3125 C-93.50167297 316.52993726 -92.39179751 317.22648 -89.8125 318.3125 C-86.97862971 318.58391213 -86.97862971 318.58391213 -84.58984375 316.2578125 C-81.69517341 312.70889959 -81.46011857 310.70924076 -81.125 306.1875 C-79.62639715 291.19782079 -72.93080654 277.97471424 -61.1875 268.3125 C-48.458956 259.30428578 -35.60316766 255.98785705 -20.1875 257.3125 C-9.13757398 259.63950006 0.28996504 266.17119166 6.8125 275.3125 C14.21539703 287.29066231 14.83753645 299.15805298 12.5625 312.6875 C12.39874878 313.74155029 12.39874878 313.74155029 12.23168945 314.81689453 C11.65539154 317.94212976 11.16188327 319.95228873 8.921875 322.26171875 C5.71847516 323.85748645 3.32973913 323.75215489 -0.1875 323.3125 C-2.625 321.875 -2.625 321.875 -4.1875 319.3125 C-4.52999666 315.06554147 -4.29207791 311.22674815 -3.80859375 307 C-2.77637825 297.09073118 -3.99364225 290.3850976 -9.3125 281.9375 C-18.49530818 273.55319688 -24.81998516 274.3125 -38.1875 274.3125 C-38.1875 300.3825 -38.1875 326.4525 -38.1875 353.3125 C-28.18757179 347.78504907 -28.18757179 347.78504907 -20.4921875 340.6953125 C-18.159778 338.22323776 -16.82047967 338.2769819 -13.3125 337.9375 C-9.98333412 337.99207649 -9.35473583 338.17789555 -6.625 340.375 C-5.1875 343.3125 -5.1875 343.3125 -4.875 346.5625 C-8.55327871 357.07186773 -20.15620133 363.38782556 -29.68359375 368.0078125 C-48.25653505 376.28466686 -67.91210333 377.59838934 -87.375 371.125 C-107.24828815 363.41264408 -122.44531107 349.31070148 -131.6484375 330.04296875 C-142.08660354 305.88149607 -139.31445662 277.49043167 -130.1875 253.3125 C-120.5969272 229.46380039 -104.25089707 212.05561146 -86.21807671 194.25387764 C-83.37336839 191.44442733 -80.53599714 188.62776103 -77.70094299 185.80857849 C-69.6475732 177.80299855 -61.58215737 169.80962017 -53.50805664 161.82495117 C-49.02678961 157.39315849 -44.55304496 152.95390249 -40.08687836 148.50689167 C-37.73707905 146.16789945 -35.38255131 143.83420214 -33.02062798 141.50741768 C-20.6871919 129.3559403 -9.34404362 117.42666157 -1.375 101.875 C-1.00810059 101.16601562 -0.64120117 100.45703125 -0.26318359 99.7265625 C8.72046597 81.87856815 14.92774204 57.74413489 9.6875 37.8125 C5.32643715 26.02748831 -1.9909559 17.60870034 -13.42578125 12.3203125 C-23.39352025 8.68286319 -33.82092945 8.32053904 -43.7265625 12.34375 C-45.22937565 13.04740833 -46.72961375 13.75660676 -48.2265625 14.47265625 C-51.1164762 15.71036829 -53.10767844 15.9424635 -56.1875 15.3125 C-59.51024404 12.85655875 -60.96368008 11.3868356 -61.8125 7.3125 C-61.17568117 4.2557696 -60.42242175 2.62706288 -58.08203125 0.54296875 C-41.0427959 -10.52375111 -17.34952742 -9.59704213 0 0 Z M-37.11608887 43.42036438 C-39.60205686 47.81063853 -38.7791282 53.37979867 -38.67578125 58.26953125 C-38.66870651 59.52763107 -38.66163177 60.7857309 -38.65434265 62.08195496 C-38.6311237 65.41499327 -38.58626548 68.74629975 -38.53082275 72.07885742 C-38.47952734 75.48406055 -38.45680691 78.88944314 -38.43164062 82.29492188 C-38.3765377 88.96792446 -38.29288292 95.6401123 -38.1875 102.3125 C-25.41128935 89.94504834 -19.4306768 69.80240013 -18.875 52.4375 C-18.95802272 48.28043397 -19.36694445 45.55091563 -22.1875 42.3125 C-25.35568756 40.20037496 -27.31969252 39.98093536 -31.0546875 39.75390625 C-33.62046346 40.42589519 -35.28208572 41.5075663 -37.11608887 43.42036438 Z M-64.87133789 193.41625977 C-72.60984581 201.74837576 -71.38315014 212.11988939 -71.04470825 222.77868652 C-70.85885748 227.63712703 -70.53587144 232.45852465 -70.1875 237.3125 C-64.9075 235.0025 -59.6275 232.6925 -54.1875 230.3125 C-54.1875 215.7925 -54.1875 201.2725 -54.1875 186.3125 C-57.81502176 186.3125 -62.24772773 191.12358259 -64.87133789 193.41625977 Z M-90.125 221 C-108.98704102 240.24855826 -120.69924581 265.29843159 -122.1875 292.3125 C-122.24035156 293.07433594 -122.29320312 293.83617187 -122.34765625 294.62109375 C-122.97873011 311.33083204 -117.02376226 327.53218152 -105.8125 339.875 C-100.24938615 345.70865747 -94.12238861 351.32877785 -86.1875 353.3125 C-86.1875 347.0425 -86.1875 340.7725 -86.1875 334.3125 C-87.6725 334.23 -89.1575 334.1475 -90.6875 334.0625 C-96.94080686 333.39124107 -101.85023784 332.12841715 -105.98046875 327.15234375 C-112.45628326 317.69242468 -112.1039057 307.68257637 -110.7265625 296.60546875 C-107.81446237 281.61671808 -101.92831069 266.45370898 -90.4921875 256.02734375 C-85.38114439 250.4121377 -85.17009627 245.25812371 -85.39648438 238.05859375 C-85.47164749 236.60151011 -85.54783157 235.14447881 -85.625 233.6875 C-85.67023913 232.191528 -85.7112871 230.69542312 -85.74804688 229.19921875 C-85.84627826 225.5675081 -86.00101257 221.94087597 -86.1875 218.3125 C-87.72809944 218.19999776 -87.72809944 218.19999776 -90.125 221 Z M-55.1875 285.3125 C-63.13168135 294.88625702 -65.24281579 303.86353294 -66.5625 316.015625 C-67.1875 319.3125 -67.1875 319.3125 -68.70825195 322.03076172 C-70.42775189 325.84550311 -70.57223395 329.02275854 -70.48046875 333.1171875 C-70.47622391 333.8411673 -70.47197906 334.56514709 -70.46760559 335.31106567 C-70.45092972 337.60360287 -70.41330081 339.89523246 -70.375 342.1875 C-70.35993871 343.74998722 -70.34625284 345.31248835 -70.33398438 346.875 C-70.30106293 350.68784505 -70.24936002 354.50001911 -70.1875 358.3125 C-68.45935839 358.50922365 -66.72990803 358.69446799 -65 358.875 C-64.03707031 358.97941406 -63.07414062 359.08382812 -62.08203125 359.19140625 C-58.81187349 359.44271562 -58.81187349 359.44271562 -54.1875 358.3125 C-54.1875 334.2225 -54.1875 310.1325 -54.1875 285.3125 C-54.5175 285.3125 -54.8475 285.3125 -55.1875 285.3125 Z M-70.1875 405.3125 C-70.1968457 406.65884521 -70.20619141 408.00519043 -70.21582031 409.39233398 C-70.25589153 414.41902957 -70.3216979 419.44512412 -70.39501953 424.47143555 C-70.42313004 426.64095297 -70.44439359 428.81057091 -70.45849609 430.98022461 C-70.48006309 434.11103413 -70.52678443 437.24064753 -70.578125 440.37109375 C-70.57935364 441.33083603 -70.58058228 442.29057831 -70.58184814 443.27940369 C-70.78290637 452.66285678 -73.89582884 459.71138163 -80.25 466.5859375 C-87.34439129 472.90795555 -95.79390249 473.91246617 -104.94140625 473.734375 C-111.05519625 473.35372848 -116.23465825 470.83433038 -121.1875 467.3125 C-123.75054503 463.46793246 -123.77820523 461.8904655 -123.1875 457.3125 C-121.84375 455.20703125 -121.84375 455.20703125 -120.1875 453 C-117.1577634 448.79283022 -116.37835917 445.76435188 -116.73828125 440.60546875 C-117.56871461 436.36664805 -119.40162287 433.75928654 -122.73046875 431.0625 C-127.05378032 428.21326949 -131.08795728 427.33876842 -136.1875 428.3125 C-140.89260909 429.92868585 -144.28027145 432.58229355 -146.52734375 437.14453125 C-149.57223001 447.1440098 -146.29602934 457.29677094 -141.6796875 466.23046875 C-134.82643882 477.78536478 -125.26838095 485.12948465 -112.26074219 488.8659668 C-99.65888848 491.58014372 -86.48093464 489.55313661 -75.640625 482.703125 C-65.19356451 475.06064451 -58.01653565 465.04316044 -55.1875 452.3125 C-54.32052004 446.49453605 -54.05248267 440.87629572 -54.08984375 435 C-54.0912587 434.14567383 -54.09267365 433.29134766 -54.09413147 432.41113281 C-54.09968038 429.71155127 -54.11222303 427.01205601 -54.125 424.3125 C-54.13002161 422.47005329 -54.13458336 420.62760527 -54.13867188 418.78515625 C-54.14963301 414.29423814 -54.16686175 409.80338364 -54.1875 405.3125 C-59.4675 405.3125 -64.7475 405.3125 -70.1875 405.3125 Z " fill="#000000" transform="translate(318.1875,6.6875)"/>
</svg>
