<?xml version="1.0" encoding="UTF-8"?>
<svg version="1.1" xmlns="http://www.w3.org/2000/svg" width="512" height="512">
<path d="M0 0 C1.35158203 -0.09474609 1.35158203 -0.09474609 2.73046875 -0.19140625 C10.77781742 1.77708335 17.58172328 11.18976445 23.27171326 16.89472961 C24.19255882 17.81401519 25.11340438 18.73330076 26.06215435 19.68044347 C28.59834284 22.21248421 31.1314358 24.7476015 33.66399562 27.28327096 C36.40306887 30.02461655 39.14503013 32.76307096 41.88661194 35.50190735 C47.24744124 40.85830064 52.60557661 46.21738083 57.96273612 51.57744417 C62.31472282 55.93169201 66.66768794 60.28495946 71.02134895 64.63753319 C71.64165723 65.25768823 72.2619655 65.87784327 72.901071 66.51679089 C74.16125876 67.77665893 75.42144877 69.03652472 76.68164099 70.29638829 C88.48338485 82.09528409 100.2820675 93.89723721 112.07969803 105.7002457 C122.20853906 115.83356079 132.34000836 125.96424188 142.47338867 136.09301758 C154.24433216 147.85861485 166.01365874 159.62582562 177.78039223 171.3956334 C179.03371319 172.64927291 180.28703624 173.90291033 181.5403614 175.15654564 C182.15702149 175.77336 182.77368158 176.39017436 183.40902833 177.02568007 C187.76089764 181.3784139 192.11392848 185.72998404 196.46740532 190.08111 C201.76593007 195.37683633 207.06268198 200.67432809 212.35713743 205.97412286 C215.05979055 208.67941139 217.76325057 211.38388065 220.46886826 214.08620453 C223.39600995 217.0098364 226.31929153 219.93729686 229.24217224 222.8651886 C230.10537486 223.7261605 230.96857748 224.58713239 231.85793775 225.47419435 C232.63527582 226.25414016 233.41261389 227.03408598 234.21350765 227.83766651 C234.88925018 228.51357139 235.56499271 229.18947628 236.26121229 229.88586313 C238.87314106 232.70884436 239.10255022 234.91890138 239.3125 238.6875 C239.3846875 239.59757813 239.456875 240.50765625 239.53125 241.4453125 C238.40588018 246.3259925 235.25157299 249.04350168 231.8125 252.5625 C230.99942383 253.41183105 230.18634766 254.26116211 229.34863281 255.13623047 C226.65223653 257.92796397 223.9242845 260.68538338 221.1875 263.4375 C220.24997115 264.39580511 219.31247099 265.35413829 218.375 266.3125 C217.47523438 267.21742188 216.57546875 268.12234375 215.6484375 269.0546875 C214.83938965 269.87308105 214.0303418 270.69147461 213.19677734 271.53466797 C209.59952737 274.59413533 206.22215402 275.97894573 201.5 275.625 C195.15476601 274.75781802 191.00556555 270.35432908 187.17700195 265.48046875 C183.95166419 262.86423195 181.13648886 262.97778748 177.15625 262.98828125 C176.3458728 262.9744339 175.53549561 262.96058655 174.70056152 262.94631958 C171.90445382 262.90365384 169.10888572 262.88963482 166.3125 262.875 C164.29294728 262.85007161 162.27341561 262.82338959 160.25390625 262.79516602 C155.44146288 262.73248169 150.62908538 262.68420982 145.81640625 262.64355469 C135.97801704 262.56024357 126.14006487 262.44216406 116.30201721 262.32608223 C92.47243481 262.04565312 68.64257068 261.79732706 44.8125 261.5625 C44.8125 262.2225 44.8125 262.8825 44.8125 263.5625 C46.070625 263.624375 47.32875 263.68625 48.625 263.75 C58.08223571 264.81894972 66.28507674 270.01748974 73.8125 275.5625 C74.40546875 275.97757812 74.9984375 276.39265625 75.609375 276.8203125 C87.84095864 286.19037887 94.51710802 301.95429663 96.53125 316.80859375 C97.7882233 329.11645733 95.58557286 340.75874219 90.1875 351.875 C89.89359375 352.49576416 89.5996875 353.11652832 89.296875 353.75610352 C84.05322239 363.8903681 74.65928243 371.86878274 66.69384766 379.8581543 C65.71513051 380.84315799 64.73659496 381.82834215 63.75822449 382.81369019 C60.58449343 386.00818132 57.40568594 389.19759555 54.2265625 392.38671875 C53.12319336 393.49414417 52.01985471 394.60159997 50.91654587 395.70908546 C45.73512529 400.90948576 40.5513448 406.1075193 35.36461699 411.30262631 C29.41010434 417.26692337 23.4639828 423.23942646 17.52477801 429.21896619 C12.90819007 433.86581252 8.2838585 438.50486233 3.6537689 443.13825542 C0.89930568 445.89505525 -1.85183588 448.65497732 -4.59476852 451.42325401 C-7.1748396 454.0267865 -9.76448682 456.62041445 -12.36141014 459.20713425 C-13.75074733 460.59574888 -15.13023768 461.99419442 -16.50926208 463.39305115 C-23.97840743 470.80131884 -32.11248088 476.83961279 -42.0625 480.4375 C-43.63644531 481.02144531 -43.63644531 481.02144531 -45.2421875 481.6171875 C-60.11079712 486.38934072 -77.36320943 484.35524005 -91.3125 477.875 C-107.53170947 469.28835969 -117.56901536 456.27939939 -123.359375 439.08203125 C-124.04455861 436.58369667 -124.67128714 434.10054658 -125.1875 431.5625 C-125.88875 432.27535156 -126.59 432.98820312 -127.3125 433.72265625 C-128.27069293 434.69024323 -129.22903439 435.65768313 -130.1875 436.625 C-130.87392578 437.32399414 -130.87392578 437.32399414 -131.57421875 438.03710938 C-136.28073868 442.77586575 -141.19882044 447.29710961 -146.52490234 451.33422852 C-157.98509562 460.02112427 -164.11591576 467.82978138 -166.09887695 482.05957031 C-166.4702415 485.19022201 -166.76741071 488.32186311 -167.02416992 491.46386719 C-167.11604584 492.58069885 -167.11604584 492.58069885 -167.20977783 493.72009277 C-167.36164911 495.76354585 -167.47023351 497.81008413 -167.57592773 499.85644531 C-168.37218703 504.68168128 -170.01621391 509.00351659 -174.140625 511.96484375 C-178.27603898 513.1723215 -181.94387087 513.31208252 -186.1875 512.5625 C-188.16709995 511.25486469 -188.16709995 511.25486469 -190.01234436 509.52253723 C-190.69935488 508.8845904 -191.38636539 508.24664356 -192.09419441 507.58936501 C-192.78498526 506.92049955 -193.4757761 506.2516341 -194.1875 505.5625 C-194.83452818 504.94081121 -195.48155636 504.31912243 -196.14819145 503.67859459 C-198.19661198 501.68274894 -200.22061776 499.66462446 -202.23999023 497.6394043 C-203.00033066 496.88081619 -203.76067108 496.12222809 -204.54405212 495.34065247 C-207.03056975 492.85849968 -209.51345511 490.37275082 -211.99609375 487.88671875 C-213.73089742 486.15258924 -215.46584946 484.41860816 -217.20094299 482.68476868 C-220.82268216 479.06449884 -224.44261854 475.4424386 -228.0612793 471.8190918 C-232.70741937 467.16722925 -237.35806877 462.51990474 -242.01005459 457.87388897 C-245.58650584 454.30104219 -249.16058318 450.72582837 -252.7339344 447.14988136 C-254.44887891 445.43426859 -256.16456982 443.71940159 -257.88101006 442.00528526 C-260.27001952 439.61880318 -262.65582079 437.22916034 -265.04077148 434.83862305 C-265.75396545 434.12745331 -266.46715942 433.41628357 -267.20196533 432.68356323 C-267.84808273 432.03462601 -268.49420013 431.38568878 -269.15989685 430.71708679 C-269.72378333 430.15282329 -270.28766981 429.58855978 -270.86864376 429.00719738 C-273.88277644 425.70546558 -273.46212684 422.30373002 -273.39453125 418.0390625 C-273.11647407 414.71286906 -272.48359936 413.0067348 -270.1875 410.5625 C-265.2441291 408.07062664 -261.54637771 407.21261917 -255.9453125 407.0546875 C-236.30795401 405.94639878 -225.20504455 401.66544015 -211.96728516 386.90380859 C-209.7578657 384.37787125 -207.63249786 381.7911876 -205.52018738 379.18331909 C-200.49176669 373.06773611 -195.12151005 367.355177 -189.50390625 361.78125 C-188.80353745 361.08229614 -188.10316864 360.38334229 -187.38157654 359.66320801 C-185.17341542 357.46058461 -182.96177963 355.26148919 -180.75 353.0625 C-179.24000186 351.55752492 -177.7302341 350.05231865 -176.22070312 348.546875 C-172.54562359 344.88274171 -168.86742644 341.2217652 -165.1875 337.5625 C-166.13876622 336.43937338 -167.09193399 335.31785717 -168.04589844 334.19702148 C-168.57648865 333.57230453 -169.10707886 332.94758759 -169.65374756 332.30393982 C-171.45603058 330.25760735 -173.41136632 328.44772262 -175.4375 326.625 C-179.38541855 322.69981419 -180.74463473 320.14260239 -181.1875 314.5625 C-179.722081 309.39043294 -177.83946394 306.31138779 -173.1875 303.5625 C-168.9077449 302.27049846 -166.69093251 302.39468916 -162.4375 303.8125 C-156.42898308 307.12428098 -151.83311903 312.6094503 -147.1875 317.5625 C-144.03545019 316.16902624 -141.92578227 314.53764921 -139.515625 312.0859375 C-138.85175781 311.415625 -138.18789062 310.7453125 -137.50390625 310.0546875 C-136.82199219 309.35601562 -136.14007813 308.65734375 -135.4375 307.9375 C-134.39142578 306.87789063 -134.39142578 306.87789063 -133.32421875 305.796875 C-131.60737512 304.05651297 -129.89538168 302.31165019 -128.1875 300.5625 C-132.05880835 295.94845953 -136.04896081 291.66865482 -140.453125 287.5546875 C-142.86305117 284.78652907 -144.06841452 282.17473421 -144.33984375 278.5 C-143.91142758 274.63646508 -143.40565391 272.84125221 -140.9375 269.6875 C-135.40684346 265.41381086 -135.40684346 265.41381086 -131.21606445 265.69458008 C-124.50561826 266.86164617 -121.13086789 269.73545803 -116.625 274.6875 C-115.99787109 275.34621094 -115.37074219 276.00492187 -114.72460938 276.68359375 C-113.19491433 278.29502822 -111.68408877 279.92037845 -110.1875 281.5625 C-105.67177696 277.78619848 -101.37474026 273.88640572 -97.25 269.6875 C-96.75693359 269.18992187 -96.26386719 268.69234375 -95.75585938 268.1796875 C-94.56404008 266.97629715 -93.37541322 265.76974635 -92.1875 264.5625 C-94.16955035 259.70255733 -98.02358502 256.72240833 -101.77734375 253.1953125 C-104.82836413 249.86243124 -106.95754435 246.7506717 -107.4375 242.18359375 C-106.95231768 237.94582941 -106.52203169 235.97423132 -103.75 232.5625 C-99.71215852 229.41101397 -96.90210762 229.03893561 -91.84765625 229.08984375 C-87.05309762 229.94174036 -84.41068669 233.1200037 -81.1875 236.5625 C-79.85569341 237.87654917 -78.52244145 239.18913565 -77.1875 240.5 C-76.18489287 241.51827287 -75.18386187 242.53811545 -74.1875 243.5625 C-55.13883952 234.59251755 -31.66256799 214.26540101 -23.1875 194.5625 C-15.98536482 171.90423598 -20.20341544 144.66364163 -22.19878197 121.42508888 C-23.05859064 111.3710067 -23.39426356 101.45052432 -23.2421875 91.36328125 C-23.22215668 89.45215797 -23.22215668 89.45215797 -23.20172119 87.50242615 C-23.14932752 82.82686796 -23.09053802 78.15186667 -22.99267578 73.47702026 C-22.27851247 61.71483659 -22.27851247 61.71483659 -26.41894531 51.15820312 C-29.02638405 48.46863957 -29.02638405 48.46863957 -31.84423828 46.45605469 C-34.49841804 44.31125179 -35.24230764 42.80008965 -36.1875 39.5625 C-36.58715697 35.65708017 -36.17886475 31.99590596 -33.9128418 28.71948242 C-33.36797119 28.12498291 -32.82310059 27.5304834 -32.26171875 26.91796875 C-31.63128662 26.22904541 -31.00085449 25.54012207 -30.35131836 24.83032227 C-26.27262329 20.55558476 -22.12445227 16.35608844 -17.9375 12.1875 C-17.0403125 11.28644531 -16.143125 10.38539062 -15.21875 9.45703125 C-13.92710937 8.16732422 -13.92710937 8.16732422 -12.609375 6.8515625 C-11.83174805 6.07506348 -11.05412109 5.29856445 -10.25292969 4.49853516 C-6.84669785 1.30569609 -4.60513439 0.20135284 0 0 Z M-2.75 33.0625 C-3.9565625 34.3 -3.9565625 34.3 -5.1875 35.5625 C-3.79374465 38.70549753 -2.16681512 40.83224387 0.26015663 43.25625229 C0.97823482 43.97831258 1.69631301 44.70037286 2.43615115 45.44431376 C3.22796986 46.2303068 4.01978858 47.01629983 4.83560181 47.82611084 C6.09385743 49.08692974 6.09385743 49.08692974 7.37753236 50.37321973 C9.70674491 52.70515894 12.04036608 55.03252193 14.37594414 57.35807538 C16.89352268 59.86702318 19.40532516 62.3817418 21.91783142 64.89576721 C26.2716648 69.25064968 30.62914731 73.60185308 34.9891243 77.95058441 C41.29292498 84.23813631 47.59120081 90.53119855 53.88813858 96.82562271 C64.1044607 107.03756675 74.32524189 117.24503577 84.54882812 127.44970703 C94.4805317 137.36305473 104.41013414 147.27849923 114.33691406 157.19677734 C114.94872271 157.80806054 115.56053136 158.41934374 116.19087966 159.04915068 C119.26010738 162.11576834 122.32929379 165.18242733 125.39845967 168.24910688 C150.86340556 193.69331676 176.33558866 219.13027125 201.8125 244.5625 C205.17970387 243.16917426 206.7984524 241.5835714 208.8125 238.5625 C182.33447266 212.0616087 155.85383023 185.56333323 129.36965311 159.06858778 C126.24649779 155.94418168 123.12336424 152.81975381 120.00024414 149.6953125 C119.37845858 149.07326463 118.75667302 148.45121675 118.11604547 147.81031895 C108.0340131 137.72392935 97.95374746 127.63577588 87.87412793 117.54697514 C77.53974469 107.20325682 67.20347836 96.86142307 56.86544317 86.52135468 C50.48086506 80.13540103 44.0977793 73.74796305 37.71656477 67.3586483 C33.346973 62.98379088 28.9755618 58.61075709 24.6026848 54.23918343 C22.07577832 51.71292061 19.54971119 49.1858325 17.02579117 46.65658569 C14.29628903 43.92136465 11.56297543 41.1899737 8.82923889 38.45898438 C8.02283449 37.64966713 7.21643008 36.84034988 6.38558918 36.00650787 C5.65905185 35.28196159 4.93251453 34.55741531 4.18396091 33.81091309 C3.55248601 33.17905846 2.9210111 32.54720383 2.27040058 31.89620209 C-0.25377446 29.58706142 -0.05121398 30.42953803 -2.75 33.0625 Z M1.8125 80.5625 C1.81618717 81.18480279 1.81987434 81.80710558 1.82367325 82.44826603 C1.91209485 97.60556962 1.97824379 112.76279383 2.01974869 127.92028904 C2.0403548 135.25042051 2.06843778 142.58037959 2.11425781 149.91040039 C2.1541857 156.30088813 2.179947 162.69125099 2.18885398 169.08186001 C2.19405876 172.46422632 2.20625034 175.84623543 2.23542023 179.22848701 C2.26445813 183.00874127 2.26845564 186.78825566 2.26660156 190.56860352 C2.28098267 191.68422668 2.29536377 192.79984985 2.31018066 193.94927979 C2.25605495 204.14855623 -1.26534796 208.97733971 -8.25547791 215.99263 C-9.06231522 216.78711044 -9.86915253 217.58159088 -10.70043945 218.40014648 C-11.98655121 219.68450592 -11.98655121 219.68450592 -13.29864502 220.99481201 C-15.15542772 222.84688641 -17.01467041 224.69599547 -18.87890053 226.54052544 C-21.83323843 229.46365288 -24.77699171 232.39729065 -27.7195282 235.33229065 C-32.38017906 239.978483 -37.04799481 244.61740174 -41.7188341 249.25334936 C-50.07078235 257.54335162 -58.41065828 265.84548964 -66.74762887 274.15055138 C-69.66799636 277.05916859 -72.59151698 279.96456695 -75.51781237 282.86721981 C-77.77588657 285.10806899 -80.03079831 287.35209827 -82.28637695 289.59545898 C-83.08714157 290.38791519 -83.88790619 291.1803714 -84.7129364 291.99684143 C-88.11970538 295.3902096 -91.44380405 298.79891981 -94.57572937 302.44874573 C-99.07735569 307.67465091 -103.98951995 312.4882727 -108.87695312 317.34960938 C-109.94072987 318.41146297 -111.00427623 319.47354741 -112.06761169 320.5358429 C-114.34364181 322.80873101 -116.62121126 325.08006085 -118.90000916 327.35017395 C-122.50940524 330.94595623 -126.11490231 334.54563142 -129.71984863 338.14587402 C-138.02245948 346.43648315 -146.33009252 354.72205376 -154.63777924 363.00757599 C-162.25692139 370.60649484 -169.8749776 378.20649414 -177.48898077 385.81056261 C-181.06661085 389.38323552 -184.64665866 392.95346188 -188.22863007 396.52178192 C-190.46269092 398.74834013 -192.69463909 400.97700718 -194.92604256 403.20622826 C-195.95425335 404.2325802 -196.9833215 405.25807413 -198.01334953 406.28260231 C-203.12980646 411.37261664 -208.13807299 416.4792502 -212.78676605 422.00366974 C-216.56638818 426.20988561 -220.55400226 427.03486898 -226 427.75 C-227.74216797 427.98783203 -227.74216797 427.98783203 -229.51953125 428.23046875 C-230.39996094 428.34003906 -231.28039062 428.44960938 -232.1875 428.5625 C-232.50264102 431.58591001 -232.50264102 431.58591001 -230.63098145 433.4797821 C-229.90262085 434.20148087 -229.17426025 434.92317963 -228.42382812 435.66674805 C-227.60297729 436.48737228 -226.78212646 437.30799652 -225.93640137 438.15348816 C-225.03957642 439.03482925 -224.14275146 439.91617035 -223.21875 440.82421875 C-221.85369324 442.18290825 -221.85369324 442.18290825 -220.46105957 443.56904602 C-218.04108629 445.97756262 -215.61223949 448.37693515 -213.18145752 450.77453613 C-210.70280652 453.22250399 -208.232622 455.67898202 -205.76171875 458.13476562 C-200.91191501 462.95239076 -196.05268725 467.76041214 -191.1875 472.5625 C-190.5275 472.2325 -189.8675 471.9025 -189.1875 471.5625 C-188.86855823 469.55139495 -188.63296971 467.52683471 -188.4375 465.5 C-187.05040022 456.0471719 -182.92236564 452.07800772 -175.98168945 445.8371582 C-165.48202686 436.24776597 -155.55919718 426.04186543 -145.52641845 415.96988082 C-142.589527 413.02288764 -139.64928978 410.07923667 -136.70930481 407.1353302 C-129.26153599 399.67654534 -121.81804783 392.21349544 -114.375 384.75 C-106.31815279 376.67105633 -98.2605299 368.59289456 -90.1980198 360.51960164 C-86.71315086 357.02978192 -83.23072633 353.53754744 -79.75022256 350.04337442 C-77.58157307 347.86722201 -75.41081444 345.69318269 -73.23950195 343.51968765 C-72.24055886 342.51888641 -71.24247342 341.51722819 -70.24535561 340.51460838 C-65.34290983 335.58598286 -60.39824248 330.80348221 -55.12409306 326.27520466 C-51.47691938 323.04967861 -48.08597317 319.56494239 -44.66357422 316.10449219 C-43.85274384 315.28898895 -43.04191345 314.47348572 -42.20651245 313.63327026 C-40.45946944 311.87578585 -38.71352959 310.11720427 -36.9685936 308.35762787 C-34.20541947 305.57231234 -31.43819238 302.79108449 -28.66970825 300.01104736 C-20.8032415 292.11132289 -12.94112957 284.20729865 -5.08935547 276.29296875 C-0.27582977 271.44118767 4.54559159 266.5973581 9.37145615 261.75785065 C11.20583693 259.91541897 13.03743725 258.07021462 14.86618423 256.22219086 C17.41972904 253.64218246 19.98241259 251.07159191 22.54736328 248.50292969 C23.2986853 247.73925079 24.05000732 246.9755719 24.82409668 246.18875122 C31.39278101 239.64508042 35.94661424 237.22652168 45.30130005 237.1892395 C46.42051849 237.20002533 47.53973694 237.21081116 48.69287109 237.22192383 C49.88368286 237.22148575 51.07449463 237.22104767 52.3013916 237.22059631 C55.55315504 237.22232365 58.80452715 237.23733056 62.0562129 237.25831819 C65.45946509 237.2771192 68.86272562 237.27883811 72.26602173 237.28239441 C78.70451842 237.29170486 85.14286162 237.31630496 91.58129084 237.34644288 C98.91379597 237.38001814 106.24630858 237.39648073 113.57887149 237.41152918 C128.65683415 237.44285552 143.73464862 237.49601325 158.8125 237.5625 C154.86761239 232.84005884 150.76180683 228.36762902 146.40312195 224.02613831 C145.78616811 223.40762448 145.16921427 222.78911065 144.53356487 222.15185398 C142.48396519 220.09829377 140.43084365 218.04829301 138.37768555 215.99829102 C136.90040229 214.51965161 135.42333161 213.04079979 133.94645691 211.56175232 C129.94920692 207.55995587 125.94881538 203.56131392 121.94770408 199.56337857 C117.76131082 195.37952046 113.5773617 191.1932193 109.39302063 187.00730896 C102.37310501 179.98557623 95.35108799 172.96595018 88.32788086 165.94750977 C80.19726508 157.82234844 72.07027524 149.6935737 63.94513482 141.56293732 C56.97109689 134.58437034 49.99512334 127.60774275 43.01750976 120.63275093 C38.84871054 116.465514 34.68059777 112.29759652 30.51422691 108.12793159 C26.60375667 104.21458524 22.69087239 100.30366921 18.77606392 96.39466286 C17.33559066 94.95551806 15.89597917 93.51551015 14.45726776 92.07460403 C12.50278963 90.11741807 10.54529774 88.16329896 8.58695984 86.2099762 C7.72200481 85.34167509 7.72200481 85.34167509 6.83957595 84.45583254 C4.68290444 81.78355262 4.68290444 81.78355262 1.8125 80.5625 Z M-6.25 312.5625 C-8.10236862 314.44274749 -9.95629813 316.32138828 -11.81333923 318.19702148 C-12.9594489 319.35511788 -14.10288494 320.51586976 -15.24293518 321.67993164 C-17.98144325 324.45212596 -20.76960842 327.09265114 -23.73413086 329.62231445 C-30.12804144 335.15533512 -36.03952085 341.20793139 -42.03125 347.16796875 C-42.68691452 347.81955774 -43.34257904 348.47114674 -44.01811218 349.14248085 C-47.48621662 352.58983786 -50.95111378 356.04038296 -54.41357422 359.4934082 C-57.96202543 363.03079809 -61.52200409 366.55634633 -65.08470917 370.07937145 C-67.84890883 372.81725967 -70.60402671 375.56415619 -73.35688782 378.31344032 C-74.66425265 379.61597951 -75.97495179 380.91518203 -77.28923035 382.21074486 C-88.78273606 393.55063135 -99.9411599 405.02344266 -100.5625 422.0625 C-100.17766523 433.44719518 -95.66309494 442.61522984 -87.375 450.375 C-78.09885819 458.04873727 -67.92487198 459.48780038 -56.1875 458.5625 C-45.07676237 455.70333685 -37.84086367 448.51852715 -29.94702148 440.62841797 C-28.92016673 439.60919322 -27.89291393 438.59036936 -26.86529541 437.57191467 C-24.08564403 434.81413197 -21.31252211 432.04987498 -18.5412395 429.28368521 C-16.80643646 427.55253476 -15.07034449 425.8226875 -13.33381844 424.09326553 C-7.26671736 418.05063234 -1.20533517 412.00232293 4.85131836 405.94921875 C10.48239844 400.32177194 16.12646919 394.70758872 21.77663285 389.09930885 C26.63921442 384.2715039 31.49204686 379.43403997 36.33761925 374.5891639 C39.22642204 371.70115139 42.11900269 368.8171951 45.02166939 365.94311142 C47.75381117 363.2372768 50.47355017 360.51954609 53.18457031 357.79255486 C54.17628182 356.79903891 55.17220494 355.80970458 56.17280388 354.82514 C65.42463111 345.7124914 71.12702685 336.77499497 71.8125 323.5625 C71.30602498 314.30666898 67.71082338 304.95470414 61.453125 298.00390625 C52.30951269 289.97058972 43.41184352 287.03698161 31.37890625 287.25390625 C14.9684686 288.67386745 4.59865359 301.51877284 -6.25 312.5625 Z " fill="#000000" transform="translate(273.1875,-0.5625)"/>
</svg>
